<?xml version="1.0" encoding="UTF-8"?>
<svg xmlns="http://www.w3.org/2000/svg" xmlns:xlink="http://www.w3.org/1999/xlink" xmlns:v="https://vecta.io/nano" width="253.349" height="74.237" viewBox="0 0 67.032 19.642">
  <g fill="#a82929">
    <path d="M11.897 19.642H7.416l2.241-2.241zm0-4.514H7.416l2.241 2.241zm3.651-4.746l-2.576 3.664 3.12-.544zm-8.132-5.79h4.481l-2.24-2.241zm8.95 12.493l-3.895 2.221.837-3.058zm2.814-4.416l-2.254 3.876-.811-3.065zM2.856 17.056l3.892 2.218-.837-3.055zM.042 12.639l2.254 3.872.808-3.065zM2.387 2.96L.166 6.852l3.058-.837z"></path>
    <path d="M6.182 5.149L3.87 8.989l-.765-3.074zm-2.287 5.269l2.283 3.856-3.071-.785zm11.53-1.296l-2.43-3.765 3.097.668zM6.804.146L2.928 2.4l3.065.808zm9.66 2.306L12.62.146l.769 3.074zm2.716 4.475l-2.169-3.921-.876 3.045zM11.897 0H7.416l2.241 2.24zM0 7.523v4.481l2.241-2.241zm19.346 0v4.481l-2.241-2.241z"></path>
  </g>
  <g fill="#333">
    <path d="M28.021 4.258q-.048-.494-.252-.891-.203-.397-.562-.63-.359-.242-.891-.233-.543 0-.862.3-.32.3-.32.727 0 .378.213.64.213.252.572.455.368.203.824.407.368.155.746.349.378.194.688.446.31.242.494.591.184.339.184.804 0 .543-.281.969-.281.426-.804.669-.514.242-1.25.242-.417 0-.882-.126-.455-.126-.833-.359l.048.407h-.591l-.039-2.132h.465q.078.843.601 1.279.533.426 1.269.426.368 0 .669-.136.3-.136.475-.388.174-.252.174-.591 0-.397-.242-.669-.233-.271-.601-.465-.359-.194-.756-.368-.397-.174-.775-.368-.368-.194-.669-.446-.3-.252-.475-.591-.174-.349-.174-.814 0-.271.097-.572.097-.3.329-.572.233-.271.63-.436.407-.174 1.017-.174.368 0 .824.107.465.107.843.378l-.039-.407h.581v2.17z"></path>
    <use xlink:href="#B"></use>
    <path d="M34.697 8.948v-.407q.291 0 .407-.136.116-.136.136-.378.029-.242.029-.562V5.45q0-.155 0-.329.01-.184.039-.359-.165.01-.349.019-.184 0-.339.01v-.514q.436 0 .678-.039.252-.048.378-.107.136-.058.203-.126h.349q.019.097.019.233.01.126.019.271.3-.252.678-.407.388-.155.746-.155.475 0 .785.174.32.165.504.475.339-.281.765-.465.426-.184.833-.184.824 0 1.221.494.397.484.388 1.628l-.01 1.676q0 .174-.01.359 0 .174-.029.359.155-.01.32-.01.165-.01.3-.019v.514h-2.132v-.407q.271 0 .378-.136.116-.136.136-.378.029-.242.029-.562V6.07q-.01-.765-.252-1.124-.242-.359-.736-.359-.281 0-.552.126-.271.116-.484.3.049.165.068.368.029.194.029.407-.01.484-.01.979 0 .484 0 .979 0 .174-.01.359-.01.174-.029.359.155-.01.31-.01.165-.01.3-.019v.514h-2.151v-.407q.291 0 .397-.136.116-.136.136-.378.029-.242.029-.562V6.06q.01-.765-.223-1.124-.223-.368-.717-.359-.281 0-.543.126-.262.116-.455.3 0 .116 0 .242.01.126.01.271v2.229q0 .174-.01.359-.01.174-.029.359.155-.01.31-.01.155-.01.291-.019v.514zm11.609 0q-.019-.155-.029-.271-.01-.116-.029-.242-.329.329-.707.504-.378.165-.785.165-.698 0-1.056-.339-.349-.349-.349-.862 0-.446.262-.775.262-.329.688-.533.426-.213.93-.31.504-.107.988-.107v-.572q0-.31-.058-.572-.058-.271-.242-.436-.174-.174-.552-.174-.252-.01-.504.097-.252.097-.388.329.078.077.097.184.029.097.029.184 0 .136-.116.31-.116.165-.397.155-.233 0-.359-.155-.116-.165-.116-.378 0-.349.252-.62.262-.271.707-.426.446-.155.998-.155.833 0 1.24.436.417.436.417 1.376 0 .349 0 .669 0 .32-.01.64 0 .32 0 .678 0 .145-.01.329-.01.184-.029.388.165-.01.339-.019.174-.01.329-.01v.514zm-.087-2.326q-.31.019-.64.087-.32.068-.581.203-.262.136-.426.349-.155.213-.155.514.019.329.213.484.203.155.475.155.339 0 .601-.126.262-.136.514-.368-.01-.107-.01-.213 0-.116 0-.242 0-.087 0-.32.01-.242.01-.523zm-2.074-4.05v-.698h2.626v.659zm6.579 9.002q-.853 0-1.376-.194-.514-.184-.746-.484-.223-.291-.223-.62 0-.262.116-.484.126-.223.329-.397.203-.165.455-.262-.339-.107-.514-.3-.174-.203-.174-.494 0-.31.242-.61.252-.3.717-.407-.436-.194-.698-.562-.262-.368-.271-.872-.01-.581.291-1.017.31-.436.785-.678.484-.242 1.008-.242.3 0 .62.087.32.077.581.252.107-.281.281-.514.174-.233.407-.368.242-.136.504-.136.281 0 .426.145.145.145.145.388 0 .077-.049.194-.039.107-.145.184-.107.077-.291.077-.155 0-.281-.097-.116-.107-.145-.252-.203.039-.339.242-.126.194-.165.397.252.223.388.533.145.3.145.649 0 .552-.3.979-.291.426-.765.669-.475.242-1.027.242-.165 0-.31-.019-.145-.029-.32-.029-.31 0-.514.145-.194.145-.145.349.049.213.407.281.359.068 1.037.097.746.029 1.279.184.543.145.833.455.3.31.3.843 0 .397-.223.707-.213.31-.581.514-.359.213-.804.32-.446.107-.891.107zm.087-.475q.785 0 1.211-.291.436-.291.436-.659 0-.31-.213-.484-.213-.165-.601-.242-.378-.068-.891-.077-.252-.019-.514-.029-.262-.01-.484-.048-.223.155-.349.378-.116.223-.126.465 0 .446.417.717.417.271 1.114.271zm-.126-3.934q.329 0 .543-.165.223-.174.329-.455.116-.291.116-.63 0-.397-.116-.746-.116-.349-.339-.562-.223-.213-.572-.213-.475 0-.736.378-.262.378-.262.911 0 .426.116.765.126.329.359.523.233.194.562.194z"></path>
    <use xlink:href="#B" x="24.156"></use>
    <path d="M60.646 9.103q-.242 0-.494-.068-.242-.058-.446-.242-.203-.194-.32-.552-.116-.359-.116-.95l.019-2.645h-.717v-.543q.262-.01.533-.194.271-.184.475-.494.203-.31.281-.669h.455v1.357h1.492v.504l-1.492.019-.019 2.587q0 .368.058.649.068.271.213.426.155.145.417.145.223 0 .455-.136.242-.136.455-.446l.329.291q-.233.339-.465.533-.233.194-.446.281-.213.097-.388.116-.174.029-.281.029z"></path>
    <path d="M65.491 8.948q-.019-.155-.029-.271-.01-.116-.029-.242-.329.329-.707.504-.378.165-.785.165-.698 0-1.056-.339-.349-.349-.349-.862 0-.446.262-.775.262-.329.688-.533.426-.213.93-.31.504-.107.988-.107v-.572q0-.31-.058-.572-.058-.271-.242-.436-.174-.174-.552-.174-.252-.01-.504.097-.252.097-.388.329.077.077.097.184.029.097.029.184 0 .136-.116.31-.116.165-.397.155-.233 0-.359-.155-.116-.165-.116-.378 0-.349.252-.62.262-.271.707-.426.446-.155.998-.155.833 0 1.24.436.417.436.417 1.376 0 .349 0 .669 0 .32-.01.64 0 .32 0 .678 0 .145-.01.329-.01.184-.029.388.165-.01.339-.019.174-.01.329-.01v.514zm-.087-2.326q-.31.019-.64.087-.32.068-.581.203-.262.136-.426.349-.155.213-.155.514.019.329.213.484.203.155.475.155.339 0 .601-.126.262-.136.514-.368-.01-.107-.01-.213 0-.116 0-.242 0-.087 0-.32.01-.242.01-.523z"></path>
  </g>
  <g fill="#666">
    <path d="M23.998 17.669v-.203q.233-.012.319-.104.086-.098.092-.264.012-.172.012-.387V14.06q0-.123.006-.233.006-.117.012-.209-.11.006-.221.012-.11.006-.221.012v-.27h2.847l.031 1.074h-.203q0-.362-.117-.546-.117-.19-.307-.252-.19-.067-.423-.061l-.448.012q-.227.006-.313.11-.086.098-.098.264-.012.166-.012.38v1.056l1.068.006-.043-.534h.27v1.295h-.196q0-.276-.08-.393-.074-.117-.233-.141-.16-.024-.417-.012l-.368.018v1.289q0 .166-.006.288 0 .117-.012.196.104-.006.209-.006.104-.006.209-.012.104-.006.209-.006v.27z"></path>
    <use xlink:href="#C"></use>
    <path d="M32.087 17.767q-.331 0-.558-.123-.221-.123-.338-.417-.11-.295-.11-.798v-1.092q0-.098 0-.196.006-.098.025-.203-.104.006-.215.012-.104 0-.209.006v-.252h.19q.264 0 .38-.049.123-.055.19-.117h.178v1.872q0 .528.147.792.153.258.515.252.233-.006.442-.141.215-.141.344-.331v-1.577q0-.147.006-.252.006-.11.025-.215-.11.006-.221.012-.11 0-.221.006v-.252h.19q.264 0 .38-.049.123-.055.19-.117h.178l-.006 2.32q0 .098-.006.276-.006.178-.018.301.11-.006.221-.012.11-.006.221-.012v.258h-.878q-.018-.104-.031-.196-.006-.092-.012-.172-.19.19-.46.331-.27.135-.54.135z"></path>
    <use xlink:href="#D"></use>
    <path d="M39.494 17.767q-.374 0-.675-.184-.301-.19-.479-.54-.172-.35-.172-.822 0-.503.203-.89.203-.387.558-.608.362-.221.816-.221.203 0 .399.055.203.049.319.117v-.841q0-.098 0-.184.006-.092.018-.215-.11.006-.221.012-.104.006-.215.012V13.2q.27 0 .417-.025.147-.024.221-.061.08-.037.123-.08h.178v3.983q0 .098-.006.196-.006.098-.018.221.11-.006.215-.012.11-.006.221-.012v.258h-.878q-.018-.092-.031-.166-.006-.08-.012-.153-.172.19-.423.307-.252.11-.558.11zm.221-.301q.203 0 .405-.117.209-.117.344-.288-.006-.074-.006-.153 0-.086 0-.184l.006-1.767q-.147-.11-.325-.16-.172-.055-.356-.055-.307 0-.534.178-.227.178-.344.497-.117.319-.104.749.012.374.117.669.11.295.307.466.203.166.491.166zm4.001.203q-.018-.104-.025-.184-.006-.08-.018-.166-.209.209-.454.331-.239.117-.509.117-.466 0-.693-.209-.227-.215-.227-.522 0-.282.172-.485.178-.209.454-.338.282-.135.608-.196.331-.067.638-.061v-.38q0-.215-.037-.405-.037-.19-.16-.313-.123-.123-.393-.129-.178-.006-.368.067-.184.074-.27.252.049.049.061.117.018.061.018.117 0 .074-.061.172-.061.092-.215.086-.129 0-.196-.086-.067-.092-.067-.215 0-.209.153-.374.16-.166.436-.264.276-.098.626-.098.515 0 .761.276.245.27.239.859 0 .227 0 .46 0 .227-.006.46 0 .227 0 .46 0 .098-.006.196-.006.098-.018.221.11-.006.215-.012.11-.006.221-.012v.258zm-.055-1.504q-.209.006-.442.055-.227.043-.423.135-.19.092-.313.245-.117.147-.11.362.012.227.147.344.141.11.331.11.252 0 .436-.092.19-.098.374-.27-.006-.067-.006-.147 0-.08 0-.166 0-.031 0-.196.006-.166.006-.38zm2.467 1.602q-.141 0-.288-.043-.147-.037-.276-.153-.123-.117-.196-.338-.074-.227-.074-.595l.012-1.78-.473.006V14.6q.16-.006.325-.117.166-.117.295-.313.135-.196.184-.43h.209v.859h1.031v.239l-1.031.012-.012 1.706q0 .276.043.473.049.19.153.288.104.098.27.098.172 0 .319-.098.153-.098.27-.27l.166.135q-.135.203-.27.319-.129.117-.252.172-.123.061-.227.074-.104.018-.178.018z"></path>
    <path d="M47.349 17.484q.19 0 .264-.092.074-.098.086-.264.012-.172.012-.393v-1.399q0-.098.006-.184.006-.092.018-.215-.11.006-.221.012-.104.006-.215.012v-.258q.27 0 .417-.025.147-.024.221-.061.08-.037.123-.08h.178v2.479q0 .123-.006.221 0 .092-.018.196.098-.006.19-.006.098-.006.196-.012v.252h-1.252zm.589-3.553q-.129 0-.227-.104-.098-.104-.098-.258 0-.153.098-.258.104-.11.233-.11.141 0 .233.11.098.104.098.258 0 .153-.104.258-.098.104-.233.104z"></path>
    <use xlink:href="#C" x="21.871"></use>
    <use xlink:href="#D" x="18.207"></use>
  </g>
  <defs>
    <path id="B" d="M32.527 8.948q-.019-.155-.029-.271-.01-.116-.029-.242-.329.329-.707.504-.378.165-.785.165-.698 0-1.056-.339-.349-.349-.349-.862 0-.446.262-.775.262-.329.688-.533.426-.213.93-.31.504-.107.988-.107v-.572q0-.31-.058-.572-.058-.271-.242-.436-.174-.174-.552-.174-.252-.01-.504.097-.252.097-.388.329.078.077.097.184.029.097.029.184 0 .136-.116.31-.116.165-.397.155-.233 0-.359-.155-.116-.165-.116-.378 0-.349.252-.62.262-.271.707-.426.446-.155.998-.155.833 0 1.24.436.417.436.417 1.376 0 .349 0 .669 0 .32-.01.64 0 .32 0 .678 0 .145-.01.329-.01.184-.029.388.165-.01.339-.019.174-.01.329-.01v.514zm-.087-2.326q-.31.019-.64.087-.32.068-.581.203-.262.136-.426.349-.155.213-.155.514.019.329.213.484.203.155.475.155.339 0 .601-.126.262-.136.514-.368-.01-.107-.01-.213 0-.116 0-.242 0-.087 0-.32.01-.242.01-.523z"></path>
    <path id="C" d="M28.724 17.767q-.43 0-.779-.196-.35-.203-.558-.552-.203-.356-.203-.81 0-.485.203-.871.203-.387.552-.608.35-.227.786-.227.43 0 .779.209.35.203.558.552.209.35.209.798 0 .473-.209.865-.203.387-.552.614-.35.227-.786.227zm.049-.245q.325 0 .515-.184.19-.184.27-.479.086-.295.086-.62 0-.276-.055-.54-.049-.27-.16-.485-.11-.221-.288-.35-.172-.129-.417-.129-.319 0-.522.184-.203.184-.301.479-.092.295-.092.632 0 .38.104.724.104.338.319.552.215.215.54.215z"></path>
    <path id="D" d="M34.456 17.669v-.184q.19 0 .264-.092.074-.098.086-.264.012-.172.012-.393l.006-1.399q0-.098 0-.196.006-.098.025-.203-.11.006-.221.012-.104.006-.215.012v-.258q.27 0 .405-.025.141-.024.209-.061.067-.037.11-.08h.178q.006.043.006.098.006.055.012.123.006.067.006.153.135-.117.295-.209.166-.092.344-.147.184-.055.362-.055.534 0 .779.338.245.331.245 1.037v1.141q0 .123-.006.221 0 .092-.018.196.098-.006.19-.006.098-.006.196-.012v.252h-1.252v-.184q.19 0 .264-.092.074-.098.086-.264.012-.172.012-.393v-.859q-.006-.528-.178-.798-.166-.27-.528-.264-.221.006-.436.117-.209.11-.35.282.006.049.006.11 0 .061 0 .129l-.006 1.565q0 .123-.006.221 0 .092-.018.196.098-.006.19-.006.098-.006.196-.012v.252z"></path>
  </defs>
</svg>
