<svg width="202" height="48" viewBox="0 0 202 48" fill="none" xmlns="http://www.w3.org/2000/svg">
<path d="M11.6912 10.7124C14.4662 5.72217 21.534 5.72217 24.309 10.7124C24.309 10.7124 24.5685 11.1378 24.7033 11.4265C25.8555 13.8943 24.6922 15.5794 23.4609 18.2907C22.8318 19.676 21.9633 20.9624 21.0092 22.2662C20.7576 22.6101 20.4978 22.9579 20.2352 23.3095C19.5203 24.2666 18.7848 25.2514 18.1372 26.2589C16.3275 29.0742 15.0661 32.2674 16.1538 36.522C16.6853 38.6013 17.5882 40.0406 18.5854 41.0296H7.25854C1.70767 41.0296 -1.78292 34.9432 0.949687 30.0291L11.6912 10.7124Z" fill="#6A4CFF"/>
<path d="M32.0452 40.2324C31.0717 40.7389 29.9561 41.0302 28.7418 41.0302H22.857C22.2625 41.0302 21.6603 40.9492 21.1429 40.6564C20.0614 40.0443 18.7153 38.782 18.0283 36.0948C17.1017 32.4705 18.1318 29.7776 19.7854 27.205C20.396 26.2551 21.0736 25.3479 21.7751 24.4087C22.0458 24.0462 22.3201 23.679 22.5954 23.3027C23.5672 21.9748 24.5257 20.5673 25.2331 19.0095C25.9324 17.4696 26.3251 16.0115 26.5195 14.6885L35.0505 30.0298C37.0999 33.7153 35.6489 38.0602 32.4536 40.0024C32.3205 40.0833 32.1843 40.1601 32.0452 40.2324Z" fill="#4CC4FF"/>
<path d="M72.3823 39H78.3823L67.5823 10.64H61.1823L50.3023 39H56.1423L58.5023 32.52H70.0223L72.3823 39ZM64.2623 16.76L68.1823 27.48H60.3423L64.2623 16.76ZM86.9295 39V19.32H81.6095V39H86.9295ZM80.9695 12.88C80.9695 14.64 82.4495 16.12 84.2495 16.12C86.0895 16.12 87.5295 14.64 87.5295 12.88C87.5295 11.04 86.0895 9.56 84.2495 9.56C82.4495 9.56 80.9695 11.04 80.9695 12.88ZM104.625 19.24C104.225 19.2 103.825 19.16 103.385 19.16C101.705 19.16 98.9852 19.64 97.7852 22.24V19.32H92.6252V39H97.9452V30C97.9452 25.76 100.305 24.44 103.025 24.44C103.505 24.44 104.025 24.48 104.625 24.6V19.24ZM113.687 39V27.48C113.687 25.32 115.047 23.6 117.367 23.6C119.767 23.6 120.847 25.2 120.847 27.32V39H126.127V27.48C126.127 25.36 127.487 23.6 129.767 23.6C132.207 23.6 133.247 25.2 133.247 27.32V39H138.407V26.24C138.407 20.96 134.927 18.76 131.287 18.76C128.687 18.76 126.607 19.64 125.047 22.04C124.047 19.92 121.887 18.76 119.207 18.76C117.047 18.76 114.527 19.8 113.447 21.72V19.32H108.367V39H113.687ZM147.677 26.92C147.797 25.12 149.317 23.04 152.077 23.04C155.117 23.04 156.397 24.96 156.477 26.92H147.677ZM156.997 32.04C156.357 33.8 154.997 35.04 152.517 35.04C149.877 35.04 147.677 33.16 147.557 30.56H161.637C161.637 30.48 161.717 29.68 161.717 28.92C161.717 22.6 158.077 18.72 151.997 18.72C146.957 18.72 142.317 22.8 142.317 29.08C142.317 35.72 147.077 39.6 152.477 39.6C157.317 39.6 160.437 36.76 161.437 33.36L156.997 32.04ZM169.786 26.92C169.906 25.12 171.426 23.04 174.186 23.04C177.226 23.04 178.506 24.96 178.586 26.92H169.786ZM179.106 32.04C178.466 33.8 177.106 35.04 174.626 35.04C171.986 35.04 169.786 33.16 169.666 30.56H183.746C183.746 30.48 183.826 29.68 183.826 28.92C183.826 22.6 180.186 18.72 174.106 18.72C169.066 18.72 164.426 22.8 164.426 29.08C164.426 35.72 169.186 39.6 174.586 39.6C179.426 39.6 182.546 36.76 183.546 33.36L179.106 32.04ZM194.576 13.44H189.776V16.2C189.776 17.96 188.816 19.32 186.736 19.32H185.736V24.04H189.296V33.2C189.296 37 191.696 39.28 195.536 39.28C197.096 39.28 198.056 39 198.536 38.8V34.4C198.256 34.48 197.536 34.56 196.896 34.56C195.376 34.56 194.576 34 194.576 32.28V24.04H198.536V19.32H194.576V13.44Z" fill="white"/>
</svg>
