<svg width="1935" height="396" viewBox="0 0 1935 396" fill="none" xmlns="http://www.w3.org/2000/svg">
<path d="M644.476 77.4469H720.474V315.864H644.476V77.4469ZM574.275 315.864H498.277V77.4469H574.275V315.864ZM649.629 222.782H569.123V160.309H649.629V222.782Z" fill="#3868C3"/>
<path d="M838.242 314.937C818.276 314.937 800.565 311.072 785.108 303.344C769.865 295.401 757.843 284.559 749.041 270.819C740.239 257.08 735.838 241.3 735.838 223.482C735.838 205.663 740.239 189.884 749.041 176.144C757.843 162.405 769.865 151.67 785.108 143.942C800.565 136.213 818.276 132.349 838.242 132.349C858.207 132.349 875.919 136.213 891.376 143.942C906.833 151.67 918.855 162.405 927.442 176.144C936.244 189.884 940.645 205.663 940.645 223.482C940.645 241.3 936.244 257.08 927.442 270.819C918.855 284.559 906.833 295.401 891.376 303.344C875.919 311.072 858.207 314.937 838.242 314.937ZM838.242 258.26C843.609 258.26 848.439 256.972 852.733 254.396C857.026 251.82 860.461 247.956 863.038 242.803C865.614 237.436 866.902 230.996 866.902 223.482C866.902 215.753 865.614 209.42 863.038 204.482C860.461 199.33 857.026 195.466 852.733 192.89C848.439 190.313 843.609 189.025 838.242 189.025C832.875 189.025 828.044 190.313 823.751 192.89C819.457 195.466 816.022 199.33 813.446 204.482C810.87 209.42 809.582 215.753 809.582 223.482C809.582 230.996 810.87 237.436 813.446 242.803C816.022 247.956 819.457 251.82 823.751 254.396C828.044 256.972 832.875 258.26 838.242 258.26Z" fill="#3868C3"/>
<path d="M1046.83 314.937C1026.86 314.937 1009.15 311.072 993.694 303.344C978.451 295.401 966.429 284.559 957.627 270.819C948.825 257.08 944.424 241.3 944.424 223.482C944.424 205.663 948.825 189.884 957.627 176.144C966.429 162.405 978.451 151.67 993.694 143.942C1009.15 136.213 1026.86 132.349 1046.83 132.349C1066.79 132.349 1084.5 136.213 1099.96 143.942C1115.42 151.67 1127.44 162.405 1136.03 176.144C1144.83 189.884 1149.23 205.663 1149.23 223.482C1149.23 241.3 1144.83 257.08 1136.03 270.819C1127.44 284.559 1115.42 295.401 1099.96 303.344C1084.5 311.072 1066.79 314.937 1046.83 314.937ZM1046.83 258.26C1052.19 258.26 1057.03 256.972 1061.32 254.396C1065.61 251.82 1069.05 247.956 1071.62 242.803C1074.2 237.436 1075.49 230.996 1075.49 223.482C1075.49 215.753 1074.2 209.42 1071.62 204.482C1069.05 199.33 1065.61 195.466 1061.32 192.89C1057.03 190.313 1052.19 189.025 1046.83 189.025C1041.46 189.025 1036.63 190.313 1032.34 192.89C1028.04 195.466 1024.61 199.33 1022.03 204.482C1019.46 209.42 1018.17 215.753 1018.17 223.482C1018.17 230.996 1019.46 237.436 1022.03 242.803C1024.61 247.956 1028.04 251.82 1032.34 254.396C1036.63 256.972 1041.46 258.26 1046.83 258.26Z" fill="#3868C3"/>
<path d="M1282.56 315.864C1264.52 315.864 1247.78 313.073 1232.32 307.491C1217.08 301.695 1203.77 293.537 1192.39 283.017C1181.23 272.498 1172.53 260.046 1166.31 245.663C1160.08 231.279 1156.97 215.392 1156.97 198.003C1156.97 180.614 1160.08 164.727 1166.31 150.343C1172.53 135.96 1181.23 123.508 1192.39 112.989C1203.77 102.469 1217.08 94.4185 1232.32 88.8368C1247.78 83.0404 1264.52 80.1421 1282.56 80.1421C1304.67 80.1421 1324.21 84.0064 1341.17 91.735C1358.34 99.4636 1372.51 110.627 1383.67 125.225L1335.69 168.055C1329.04 159.682 1321.63 153.242 1313.47 148.733C1305.53 144.01 1296.51 141.649 1286.42 141.649C1278.48 141.649 1271.29 142.937 1264.85 145.513C1258.41 148.089 1252.82 151.846 1248.1 156.784C1243.59 161.722 1240.05 167.733 1237.47 174.817C1234.9 181.687 1233.61 189.416 1233.61 198.003C1233.61 206.59 1234.9 214.426 1237.47 221.511C1240.05 228.381 1243.59 234.284 1248.1 239.222C1252.82 244.16 1258.41 247.917 1264.85 250.493C1271.29 253.069 1278.48 254.357 1286.42 254.357C1296.51 254.357 1305.53 252.103 1313.47 247.595C1321.63 242.872 1329.04 236.324 1335.69 227.951L1383.67 270.78C1372.51 285.164 1358.34 296.328 1341.17 304.271C1324.21 311.999 1304.67 315.864 1282.56 315.864Z" fill="#3868C3"/>
<path d="M1514.69 136.496C1528.21 136.496 1540.45 139.287 1551.4 144.869C1562.35 150.236 1570.94 158.716 1577.16 170.309C1583.6 181.902 1586.82 196.929 1586.82 215.392V315.864H1514.04V227.951C1514.04 217.002 1512.11 209.274 1508.25 204.765C1504.38 200.042 1499.12 197.681 1492.47 197.681C1487.53 197.681 1482.92 198.862 1478.62 201.223C1474.54 203.37 1471.22 207.02 1468.64 212.172C1466.28 217.324 1465.1 224.302 1465.1 233.104V315.864H1392.32V76.9219H1465.1V191.24L1447.71 176.427C1454.58 163.117 1463.81 153.134 1475.4 146.479C1487.21 139.824 1500.3 136.496 1514.69 136.496Z" fill="#3868C3"/>
<path d="M1715.36 315.864V284.627L1710.2 276.255V217.002C1710.2 208.415 1707.52 201.867 1702.15 197.359C1697 192.851 1688.52 190.596 1676.71 190.596C1668.77 190.596 1660.72 191.884 1652.56 194.461C1644.4 196.822 1637.43 200.15 1631.63 204.443L1608.45 156.462C1618.75 150.021 1631.09 145.084 1645.48 141.649C1659.86 138.214 1673.92 136.496 1687.66 136.496C1717.93 136.496 1741.33 143.259 1757.86 156.784C1774.61 170.309 1782.98 191.777 1782.98 221.189V315.864H1715.36ZM1665.44 319.084C1651.06 319.084 1639.04 316.615 1629.38 311.677C1619.72 306.74 1612.42 300.192 1607.48 292.034C1602.54 283.661 1600.07 274.43 1600.07 264.34C1600.07 252.962 1602.97 243.301 1608.77 235.358C1614.56 227.414 1623.37 221.403 1635.17 217.324C1647.2 213.245 1662.33 211.206 1680.58 211.206H1717.29V246.307H1692.17C1684.44 246.307 1678.75 247.595 1675.1 250.171C1671.67 252.532 1669.95 256.182 1669.95 261.12C1669.95 265.199 1671.45 268.634 1674.46 271.424C1677.68 274.001 1681.97 275.289 1687.34 275.289C1692.28 275.289 1696.79 274.001 1700.87 271.424C1705.16 268.634 1708.27 264.34 1710.2 258.543L1719.54 280.119C1716.75 293.215 1710.85 302.983 1701.83 309.423C1692.82 315.864 1680.69 319.084 1665.44 319.084Z" fill="#3868C3"/>
<path d="M1889.79 315.628C1865.53 315.628 1846.64 309.831 1833.11 298.239C1819.59 286.431 1812.83 268.398 1812.83 244.139V96.6515H1885.6V243.494C1885.6 248.862 1887 253.048 1889.79 256.053C1892.79 259.059 1896.44 260.562 1900.74 260.562C1906.96 260.562 1912.44 258.952 1917.16 255.731L1934.55 306.289C1928.97 309.509 1922.21 311.871 1914.26 313.374C1906.53 314.876 1898.38 315.628 1889.79 315.628ZM1788.67 199.055V145.921H1921.67V199.055H1788.67Z" fill="#3868C3"/>
<path d="M395.995 197.998C395.995 307.349 307.349 395.995 197.998 395.995C88.6465 395.995 0 307.349 0 197.998C0 88.6466 88.6465 0 197.998 0C307.349 0 395.995 88.6466 395.995 197.998Z" fill="#3868C3"/>
<path d="M393.167 385.084C394.482 389.992 389.992 394.482 385.084 393.167L241.54 354.705C236.632 353.39 234.989 347.255 238.581 343.663L343.663 238.581C347.255 234.988 353.39 236.632 354.705 241.54L393.167 385.084Z" fill="#3868C3"/>
<path d="M197.997 342.915C274.794 342.915 337.051 280.659 337.051 203.862H58.9439C58.9439 280.659 121.2 342.915 197.997 342.915Z" fill="white"/>
<path d="M159.111 286.586C173.477 286.586 185.124 274.94 185.124 260.574C185.124 246.207 173.477 234.561 159.111 234.561C144.744 234.561 133.098 246.207 133.098 260.574C133.098 274.94 144.744 286.586 159.111 286.586Z" fill="#3868C3"/>
<path d="M236.88 286.586C251.247 286.586 262.893 274.94 262.893 260.574C262.893 246.207 251.247 234.561 236.88 234.561C222.514 234.561 210.868 246.207 210.868 260.574C210.868 274.94 222.514 286.586 236.88 286.586Z" fill="#3868C3"/>
<path fill-rule="evenodd" clip-rule="evenodd" d="M88.0594 136.228H307.93C310.873 136.228 313.647 137.473 315.418 139.592L350.226 181.266C354.874 186.83 350.47 194.788 342.739 194.788H53.2556C45.5245 194.788 41.1202 186.83 45.7682 181.266L80.5766 139.592C82.3477 137.473 85.1216 136.228 88.064 136.228H88.0594Z" fill="white"/>
<path fill-rule="evenodd" clip-rule="evenodd" d="M99.3396 118.023L115.11 66.0677C116.202 62.4728 120.829 60.1231 125.705 60.6929L168.421 65.693C185.733 67.7187 203.355 67.8007 220.705 65.935L270.294 60.5993C275.132 60.0801 279.689 62.4221 280.772 65.9857L296.565 118.019C297.897 122.407 293.438 126.583 287.424 126.583H108.481C102.466 126.583 98.0083 122.407 99.3396 118.019V118.023Z" fill="white"/>
</svg>
