<svg xmlns="http://www.w3.org/2000/svg" viewBox="0 0 168 84.53"><defs><style>.cls-1,.cls-2{fill:#1b2e38;}.cls-2{fill-rule:evenodd;}</style></defs><title>Asset 3</title><g id="Layer_2" data-name="Layer 2"><g id="Layer_1-2" data-name="Layer 1"><path class="cls-1" d="M67.76,32.63h-3l-2.14-5.3H60v5.3h-2.8V18.49h6.19a4.42,4.42,0,0,1,4.41,4.42,4.38,4.38,0,0,1-2.35,3.9ZM65,22.91a1.62,1.62,0,0,0-1.62-1.62H60v3.24h3.39A1.62,1.62,0,0,0,65,22.91"/><polygon class="cls-1" points="80.62 18.49 74.21 33.07 67.8 18.49 70.86 18.49 74.2 26.1 77.56 18.49 80.62 18.49"/><path class="cls-1" d="M69.38,44.47a6.19,6.19,0,1,1-12.37,0V36.3h2.8v8.17a3.38,3.38,0,0,0,3.39,3.39,3.26,3.26,0,0,0,2.39-1,3.31,3.31,0,0,0,1-2.4V36.3h2.79Z"/><polygon class="cls-1" points="84.01 50.88 73.69 41.97 73.69 50.44 70.9 50.44 70.9 35.85 81.21 44.76 81.21 36.3 84.01 36.3 84.01 50.88"/><rect class="cls-1" x="85.81" y="36.3" width="2.95" height="14.14"/><polygon class="cls-1" points="102.05 36.3 95.64 50.88 89.24 36.3 92.29 36.3 95.64 43.9 99 36.3 102.05 36.3"/><polygon class="cls-1" points="111.67 50.44 102.39 50.44 102.39 36.3 111.22 36.3 111.22 39.09 105.18 39.09 105.18 41.89 110.78 41.89 110.78 44.69 105.18 44.69 105.18 47.64 111.67 47.64 111.67 50.44"/><path class="cls-1" d="M123.93,50.44h-3l-2.15-5.31h-2.64v5.31h-2.8V36.3h6.19a4.42,4.42,0,0,1,4.42,4.42,4.34,4.34,0,0,1-.64,2.29,4.3,4.3,0,0,1-1.72,1.61Zm-2.8-9.72a1.62,1.62,0,0,0-1.62-1.63h-3.39v3.25h3.39a1.62,1.62,0,0,0,1.62-1.62"/><path class="cls-1" d="M135.87,46.21a4,4,0,0,1-.64,2.19,4.15,4.15,0,0,1-1.68,1.51,6.9,6.9,0,0,1-3.13.75,7,7,0,0,1-3.16-.75,3.93,3.93,0,0,1-2.19-2.76l2.69-.94a1.23,1.23,0,0,0,.73,1.19,4.24,4.24,0,0,0,3.84,0,1.24,1.24,0,0,0,.74-1.19,1.06,1.06,0,0,0-.75-1.05l-4.43-1.75a3.36,3.36,0,0,1-1.54-1.27,3.53,3.53,0,0,1-.57-2,3.61,3.61,0,0,1,.58-2,3.73,3.73,0,0,1,1.54-1.38,5.72,5.72,0,0,1,5,0,3.68,3.68,0,0,1,1.92,2.12l-2.64.94a.93.93,0,0,0-.49-.54,2.91,2.91,0,0,0-1.29-.3,3,3,0,0,0-1.32.3.9.9,0,0,0-.53.87.76.76,0,0,0,.53.72l4.45,1.78A3.52,3.52,0,0,1,135.24,44a3.84,3.84,0,0,1,.63,2.17"/><rect class="cls-1" x="137.45" y="36.3" width="2.95" height="14.14"/><polygon class="cls-1" points="154.5 39.09 149.42 39.09 149.42 50.44 146.62 50.44 146.62 39.09 141.54 39.09 141.54 36.3 154.5 36.3 154.5 39.09"/><polygon class="cls-1" points="168 36.3 162.71 44.25 162.71 50.44 159.91 50.44 159.91 44.25 154.61 36.3 157.96 36.3 161.31 41.3 164.64 36.3 168 36.3"/><path class="cls-2" d="M38.41,57.15a12.16,12.16,0,0,0-22.65,0c.32.22.65.44,1,.64a11,11,0,0,1,20.69,0c.33-.2.66-.42,1-.64"/><path class="cls-2" d="M35.35,58.9a19.68,19.68,0,0,1-16.53,0,8,8,0,0,1,.41-1.06,18.6,18.6,0,0,0,15.71,0,9.68,9.68,0,0,1,.41,1.06m-27-39.43V40.86a18.74,18.74,0,0,0,8.71,15.8,9.91,9.91,0,0,0-.45,1.06A19.89,19.89,0,0,1,7.22,40.86V18.33H8.37Zm38.57-1.14V40.86a19.91,19.91,0,0,1-9.4,16.86,9.91,9.91,0,0,0-.45-1.06,18.76,18.76,0,0,0,8.71-15.8V18.33Z"/><path class="cls-2" d="M35.42,58.87c-.35.16-.7.32-1.06.46a7.61,7.61,0,0,0-14.55,0c-.36-.14-.71-.29-1.06-.46a8.76,8.76,0,0,1,16.67,0"/><rect class="cls-1" x="8.26" y="31.75" width="8.68" height="1.14"/><path class="cls-2" d="M25.94,25.26a12.15,12.15,0,0,0-10.16,7.63H17a11,11,0,0,1,8.92-6.49Zm12.45,7.63a12.15,12.15,0,0,0-10.16-7.63V26.4a11,11,0,0,1,8.92,6.49Z"/><rect class="cls-1" x="37.8" y="31.75" width="8.68" height="1.14"/><path class="cls-2" d="M23.93,26.73c-2.61,10.25,3.46,12.15,2.49,20a12.15,12.15,0,0,1-1.08,3.61.57.57,0,1,1-1-.48c1.66-4.06,1.22-6.67-.37-10.8-2.05-5.33-2.51-7.07-1.1-12.6a.57.57,0,1,1,1.09.32"/><path class="cls-2" d="M15.86,32.47c1.14,8.72,8.43,4.07,7.42,18a.57.57,0,0,1-1.14-.13c1-13.32-6.16-8.15-7.42-17.75a.57.57,0,0,1,1.14-.07"/><path class="cls-2" d="M8.73,32.46c1.65,6.28,3.38,6.26,8,9.71,3.74,2.77,4.15,5.19,4.1,9.66a.58.58,0,0,1-.61.53.57.57,0,0,1-.53-.61c.05-4-.24-6.15-3.63-8.66-4.94-3.66-6.71-3.7-8.48-10.41a.57.57,0,1,1,1.12-.22"/><path class="cls-2" d="M8.38,40.07c4.47,7.64,8,2.3,11,13.19a.57.57,0,1,1-1.11.25C15.49,43.23,12.11,48.69,7.37,40.6a.57.57,0,0,1,.24-.77.58.58,0,0,1,.77.24"/><path class="cls-2" d="M9.34,47c1.56,3.19,6.12,1.83,8.7,7.91a.57.57,0,0,1-1.08.39c-2.39-5.65-6.74-3.91-8.69-7.91a.58.58,0,0,1,.34-.73.56.56,0,0,1,.73.34"/><path class="cls-2" d="M30.24,26.73c2.61,10.25-3.47,12.15-2.49,20a12.15,12.15,0,0,0,1.08,3.61.57.57,0,0,0,.76.28.58.58,0,0,0,.27-.76c-1.66-4.06-1.22-6.67.37-10.8,2.05-5.33,2.51-7.07,1.1-12.6a.58.58,0,0,0-.71-.39.57.57,0,0,0-.38.71"/><path class="cls-2" d="M38.31,32.47c-1.14,8.72-8.43,4.07-7.42,18a.57.57,0,0,0,.63.5.58.58,0,0,0,.51-.63c-1-13.32,6.16-8.15,7.42-17.75a.57.57,0,0,0-1.14-.07"/><path class="cls-2" d="M45.44,32.46c-1.65,6.28-3.38,6.26-8,9.71-3.74,2.77-4.15,5.19-4.1,9.66a.57.57,0,0,0,.61.53.57.57,0,0,0,.53-.61c-.05-4,.24-6.15,3.63-8.66,4.94-3.66,6.71-3.7,8.48-10.41a.57.57,0,1,0-1.12-.22"/><path class="cls-2" d="M45.79,40.07c-4.47,7.64-8.06,2.3-11,13.19a.57.57,0,1,0,1.11.25c2.76-10.28,6.14-4.82,10.88-12.91a.57.57,0,0,0-.24-.77.58.58,0,0,0-.77.24"/><path class="cls-2" d="M44.82,47c-1.55,3.19-6.11,1.83-8.69,7.91a.57.57,0,0,0,1.08.39c2.39-5.65,6.74-3.91,8.69-7.91A.57.57,0,0,0,44.82,47"/><path class="cls-2" d="M11.34,14.32c4.74,0,9.66,1,13.46,3.57V17a25.48,25.48,0,0,0-13.46-4.92ZM9.42,18.07c5.3-.52,11.08-.84,15.38,2v-.85c-4.17-3.23-10-4-15.38-3.76ZM25.94,21V32.48a9.85,9.85,0,0,1-1.13-.57V21.47c-4.73-3.66-11.7-2.65-17.57-2V18.29l1-.11V14.44c.64,0,1.28-.08,1.92-.1V10.92a26.23,26.23,0,0,1,15.75,5.61V21Z"/><path class="cls-2" d="M42.78,14.32c-4.74,0-9.67,1-13.47,3.57V17a25.51,25.51,0,0,1,13.47-4.92Zm1.92,3.75c-5.3-.52-11.09-.84-15.39,2v-.85c4.17-3.23,10-4,15.39-3.76ZM28.17,21v10.6c0,.28,0,.62,0,.91a5.86,5.86,0,0,0,1.12-.56V21.47c4.74-3.66,11.7-2.65,17.58-2V18.29l-1-.11V14.44c-.63,0-1.27-.08-1.92-.1V10.92a26.28,26.28,0,0,0-15.75,5.61V21Z"/><path class="cls-2" d="M21.67,8.72c2.53-.34,6.48,2.26,5.79,5.18-3.44.74-5.57-2.49-5.79-5.18m-.14-1.14a6.76,6.76,0,0,1,4.31,1.15c1.81,1.17,3.26,3.19,2.73,5.44l-.17.7-.7.15c-3.95.84-6.87-2.57-7.16-6.21l-.09-1.09Z"/><path class="cls-2" d="M32.44,8.72C29.91,8.38,26,11,26.66,13.9c3.43.74,5.57-2.49,5.78-5.18m.15-1.14a6.75,6.75,0,0,0-4.31,1.15C26.47,9.9,25,11.92,25.55,14.17l.16.7.71.15c3.94.84,6.87-2.57,7.16-6.21l.09-1.09Z"/><path class="cls-2" d="M16.48,1.14c.27,2.37,2.08,4.67,4.65,4.24C21.38,4,20.34,2.74,19.24,2a5,5,0,0,0-2.76-.88M16.12,0a5.92,5.92,0,0,1,3.75,1c1.56,1,2.81,2.79,2.34,4.73l-.14.56-.56.12c-3.45.71-6-2.29-6.19-5.47L15.25.14Z"/><path class="cls-2" d="M12.28,6.66c1.82-.83,5.37.22,5.53,2.57-2.41,1.33-4.75-.6-5.53-2.57m-.48-1a5.5,5.5,0,0,1,3.67-.14,4.34,4.34,0,0,1,3.47,3.67l0,.72-.63.35c-2.9,1.61-6-.33-7.15-3.14l-.4-1Z"/><path class="cls-2" d="M24.56,3.31a2.41,2.41,0,0,0,.77,2.15,3.06,3.06,0,0,0-.77-2.15M24,1.77c1.58.63,3,3.42,1.69,4.9C23.48,6,23.28,3.42,24,1.77"/><path class="cls-2" d="M37.64,1.14C37.37,3.51,35.56,5.81,33,5.38,32.74,4,33.78,2.74,34.88,2a4.92,4.92,0,0,1,2.76-.88M38,0a5.91,5.91,0,0,0-3.75,1c-1.56,1-2.81,2.79-2.34,4.73l.13.56.57.12c3.44.71,6-2.29,6.19-5.47l.06-.86Z"/><path class="cls-2" d="M41.84,6.66c-1.82-.83-5.38.22-5.53,2.57,2.41,1.33,4.75-.6,5.53-2.57m.47-1a5.5,5.5,0,0,0-3.67-.14,4.37,4.37,0,0,0-3.47,3.67l-.05.72.64.35c2.89,1.61,6-.33,7.14-3.14l.4-1Z"/><path class="cls-2" d="M29.56,3.31a2.44,2.44,0,0,1-.77,2.15,3,3,0,0,1,.77-2.15m.53-1.54c-1.58.63-3,3.42-1.7,4.9,2.24-.68,2.45-3.25,1.7-4.9"/><path class="cls-2" d="M27,17.94a3.14,3.14,0,0,0,1.77-.54l-.14-.85-.35-.15a2.07,2.07,0,0,1-2.51,0l-.38,1.07a3.18,3.18,0,0,0,1.61.44"/><path class="cls-2" d="M27,32.69a3.07,3.07,0,0,0,1.77-.55l-.14-.84-.35-.15a2.07,2.07,0,0,1-2.51,0l-.38,1.06a3.09,3.09,0,0,0,1.61.45"/><path class="cls-2" d="M46.09,58.7a.39.39,0,0,0-.18,0,42.38,42.38,0,0,1-37.65,0,.5.5,0,0,0-.32,0,.45.45,0,0,0-.24.21L4.42,65.57a.42.42,0,0,0,.19.56,50.69,50.69,0,0,0,45,0,.41.41,0,0,0,.19-.55l-3.28-6.64a.45.45,0,0,0-.24-.21l-.14,0M27.08,64a43.52,43.52,0,0,0,18.83-4.31l2.91,5.89a49.83,49.83,0,0,1-43.47,0l2.91-5.89A43.48,43.48,0,0,0,27.08,64"/><path class="cls-2" d="M4.51,54.32a.39.39,0,0,0-.18,0,.43.43,0,0,0-.24.34C4,56,3.9,57.27,3.88,58.57c-1.18.69-2.4,1.35-3.65,2a.43.43,0,0,0-.23.35.4.4,0,0,0,.19.37A50.1,50.1,0,0,0,5.5,64.32a.5.5,0,0,0,.32,0,.45.45,0,0,0,.24-.21l2.2-4.46a42.64,42.64,0,0,0,4.59,1.9.4.4,0,0,0,.32,0,.45.45,0,0,0,.21-.24l.66-1.9a.41.41,0,0,0-.25-.53,40.41,40.41,0,0,1-9-4.49.39.39,0,0,0-.23-.07M1.25,61c1.11-.56,2.2-1.16,3.26-1.79a.42.42,0,0,0,.2-.35c0-1.12.07-2.24.15-3.35a41.39,41.39,0,0,0,8.26,4.06l-.39,1.13a42.88,42.88,0,0,1-4.47-1.91.44.44,0,0,0-.32,0,.45.45,0,0,0-.24.21L5.5,63.38A47,47,0,0,1,1.25,61"/><path class="cls-2" d="M8.07,59.12A44.41,44.41,0,0,0,13,61.18c.23-.64.45-1.27.67-1.91a38.91,38.91,0,0,1-5.58-.15"/><path class="cls-2" d="M8.07,58.7a.42.42,0,0,0-.18.79,44,44,0,0,0,5,2.08.4.4,0,0,0,.32,0,.45.45,0,0,0,.21-.24L14,59.48a.46.46,0,0,0,.05-.21.41.41,0,0,0-.41-.42h0a37.62,37.62,0,0,1-5.51-.16h0m4.66,1.95c-.81-.3-1.62-.62-2.42-1,.92,0,1.83.05,2.75,0Z"/><path class="cls-2" d="M49.66,54.32a.39.39,0,0,0-.23.07,40.41,40.41,0,0,1-9,4.49.41.41,0,0,0-.25.53l.66,1.9a.42.42,0,0,0,.21.24.4.4,0,0,0,.32,0,42.64,42.64,0,0,0,4.59-1.9l2.2,4.46a.45.45,0,0,0,.24.21.5.5,0,0,0,.32,0A49.12,49.12,0,0,0,54,61.25a.4.4,0,0,0,.19-.37.43.43,0,0,0-.23-.35c-1.25-.6-2.47-1.26-3.65-2,0-1.3-.1-2.6-.22-3.87a.4.4,0,0,0-.23-.34.39.39,0,0,0-.18,0m-8.61,5.2a41.39,41.39,0,0,0,8.26-4.06c.08,1.11.14,2.23.15,3.35a.42.42,0,0,0,.2.35c1.06.63,2.15,1.23,3.26,1.79a47,47,0,0,1-4.25,2.43l-2.2-4.45a.45.45,0,0,0-.24-.21.5.5,0,0,0-.32,0,42.88,42.88,0,0,1-4.47,1.91Z"/><path class="cls-2" d="M46.09,59.12a42.86,42.86,0,0,1-4.91,2.06l-.66-1.91a38.73,38.73,0,0,0,5.57-.15"/><path class="cls-2" d="M46.1,58.7h-.05a37.62,37.62,0,0,1-5.51.16.41.41,0,0,0-.41.55l.66,1.9a.42.42,0,0,0,.21.24.4.4,0,0,0,.32,0,43.3,43.3,0,0,0,4.92-2.06.42.42,0,0,0-.14-.81h0m-3.86,1c.54,0,1.08,0,1.62,0-.8.34-1.61.66-2.42,1l-.33-.94,1.13,0"/><path class="cls-1" d="M21.4,68.48l.08-.76.76.07-.08.76Zm.21-2.12.07-.76.76.08-.07.76Zm-1.31-.7-.69,3.17L19,68.71l.69-3.17-.54-.12.11-.54c1.5.32,1.55.33,1,.78m-4.75,2.11a1.26,1.26,0,0,1-.56-.26.43.43,0,0,1-.2-.43.44.44,0,0,1,.18-.26.39.39,0,0,1,.3-.06.85.85,0,0,1,.55.48,1,1,0,0,0,.56-.1.48.48,0,0,0,.23-.3c0-.08,0-.13-.1-.15a1.06,1.06,0,0,0-.31,0,1.16,1.16,0,0,1-.27,0,.88.88,0,0,1-.53-.51,1.18,1.18,0,0,1-.18-.76.41.41,0,0,1,.24-.29.79.79,0,0,1,.43,0l2.09.46.08-.37-3-.65L15.2,64l4.37.95-.12.54-.8-.17L18,68.48l-.59-.13L17.88,66,16,65.61c-.1,0-.16,0-.17.08a.37.37,0,0,0,.1.3.53.53,0,0,0,.23.21h.39a2.2,2.2,0,0,1,.38,0,.4.4,0,0,1,.28.23.61.61,0,0,1,0,.4,1,1,0,0,1-.36.61,1.24,1.24,0,0,1-.73.22l.58.49h0l-.53.33a5,5,0,0,1-.66-.71m-2.07-2.31.4-1.31-1.19-.36-.34,1.11a.64.64,0,0,0,0,.43.53.53,0,0,0,.34.27.84.84,0,0,0,.76-.14m-1.32.47a1,1,0,0,1-.4-.51,1,1,0,0,1,0-.67l.34-1.14-.5-.15.16-.54L15.4,64l-.16.53-.78-.24-.94,3.11-.58-.18.36-1.18-2.17.71L11,66.29Z"/><path class="cls-1" d="M41.83,67.07l-.19-.73.74-.19.19.74Zm-.53-2-.19-.74.74-.19.19.74Zm-1.18-.51-.79.18.72,3.16-.6.14-.71-3.17-.54.12-.12-.54L40,64Zm-2.86,2.2,1.41,1.22-.39.44-2.41-2.1.4-.48.42.39a.51.51,0,0,0,.44.15.34.34,0,0,0,.22-.17.44.44,0,0,0,0-.28L37.17,65l-1.62.36L35.47,65l2.89-.65.12.54-.67.15.18.8a.75.75,0,0,1-.06.55.59.59,0,0,1-.41.33.57.57,0,0,1-.26,0M36,65.34l-.81.26.31,3.23-.6.06-.32-3.23-.55,0-.06-.55.56,0a2.05,2.05,0,0,0-.59-.75,1,1,0,0,0-.74-.23.6.6,0,0,0-.36.16.37.37,0,0,0-.13.32.65.65,0,0,0,.16.36,1.66,1.66,0,0,0,.42.33l-.62.06a.89.89,0,0,1-.52-.72.76.76,0,0,1,.25-.68,1.22,1.22,0,0,1,.73-.31A1.55,1.55,0,0,1,34.2,64a2.74,2.74,0,0,1,.86,1.06l.82-.08ZM32,68.59a1.25,1.25,0,0,1-.76-.18.75.75,0,0,1-.37-.59.72.72,0,0,1,.25-.65,1.15,1.15,0,0,1-.75-1,.7.7,0,0,1,.19-.57,1,1,0,0,1,.6-.27.86.86,0,0,1,.56.12.56.56,0,0,1,.26.41.52.52,0,0,1-.19.45,1,1,0,0,1-.53.21l0-.38a.43.43,0,0,0,.19-.06.19.19,0,0,0,0-.28.5.5,0,0,0-.45.08.31.31,0,0,0-.06.24c0,.29.24.53.64.71a2,2,0,0,1,.73-.2l.24.45a1.75,1.75,0,0,0-.79.21.41.41,0,0,0-.23.41.32.32,0,0,0,.16.25.51.51,0,0,0,.36.07,1.17,1.17,0,0,0,1-.75l-.15-1.48-.6.06-.06-.55,2-.2.06.56-.81.07L33.77,69l-.6.06L33.06,68a1.3,1.3,0,0,1-1,.63"/><path class="cls-2" d="M21.07,65.72a47,47,0,0,1-10.35-2.56L11,62.6a46.7,46.7,0,0,0,10.2,2.5Zm19.5-1.25A48.93,48.93,0,0,1,32.2,66l-.11-.62a47.06,47.06,0,0,0,8.37-1.48Z"/><polygon class="cls-2" points="26.18 65.3 26.56 66.48 27.8 66.47 26.8 67.2 27.18 68.38 26.18 67.64 25.18 68.38 25.57 67.2 24.57 66.47 25.8 66.48 26.18 65.3"/><rect class="cls-1" x="56.93" y="55" width="111.07" height="2.31"/><path class="cls-1" d="M60.69,65.72a.73.73,0,0,0,.34-.48l.17-.65a1.4,1.4,0,0,0,.07-.39c0-.26-.18-.31-.63-.33l0-.15c.26,0,.71,0,1,0s.61,0,.79,0l0,.15c-.33,0-.4.09-.55.64L61.52,66h-.15a1.08,1.08,0,0,0,0-.19c0-.12,0-.23-.12-.23s-.1,0-.28.12a2.26,2.26,0,0,1-1.27.41c-1.22,0-1.89-.62-1.89-1.71,0-1.69,1.33-3.79,3.28-3.79a1.51,1.51,0,0,1,1.22.48.19.19,0,0,0,.14.07c.09,0,.18-.13.29-.45h.17a11.38,11.38,0,0,0-.48,1.72h-.17a3.6,3.6,0,0,0,0-.56,1.2,1.2,0,0,0-.1-.55,1.32,1.32,0,0,0-1.16-.58c-1.66,0-2.53,2.5-2.53,3.9,0,.9.42,1.32,1.29,1.32a1.84,1.84,0,0,0,.86-.23"/><path class="cls-1" d="M67.33,62.05c.62,0,1,.38,1,1.17,0,1.1-.76,2.88-2.16,2.88-.62,0-1-.38-1-1.18,0-1.09.77-2.87,2.17-2.87M65.81,65.3c0,.45.14.65.42.65.81,0,1.48-1.77,1.48-3.1,0-.46-.15-.65-.43-.65-.8,0-1.47,1.77-1.47,3.1"/><path class="cls-1" d="M70.79,67l0-.1a1.44,1.44,0,0,0,.79-1,.65.65,0,0,1-.39.19.25.25,0,0,1-.28-.26.77.77,0,0,1,.69-.7c.23,0,.33.22.33.44A1.72,1.72,0,0,1,70.79,67"/><path class="cls-1" d="M80.06,65.07c0,.5.21.71.52.71A1.36,1.36,0,0,0,81.7,65l.15.06a1.89,1.89,0,0,1-1.5,1c-.6,0-1-.37-1-1.1,0-1.15.85-3,2.25-3,.44,0,.81.24.81.63a.57.57,0,0,1-.53.6.28.28,0,0,1-.31-.29.63.63,0,0,1,.56-.56.55.55,0,0,0-.5-.23c-.77,0-1.59,1.35-1.59,2.87"/><path class="cls-1" d="M88.17,65.33c-.21.63-.59.77-.9.77s-.53-.18-.53-.46a1.81,1.81,0,0,1,.13-.59l.71-2.14a1.43,1.43,0,0,0,.08-.37.22.22,0,0,0-.25-.25c-.55,0-1.27,1.11-1.82,2.77l-.28.93h-.65l1.48-5a1,1,0,0,0,0-.21c0-.19-.14-.28-.52-.28l0-.16a2.85,2.85,0,0,0,1.34-.31L86,63.76c.56-1.25,1.07-1.71,1.69-1.71.45,0,.6.24.6.56a2,2,0,0,1-.11.57l-.72,2.18a.88.88,0,0,0-.06.28.16.16,0,0,0,.18.18c.18,0,.36-.16.57-.76l.1-.28h.14Z"/><path class="cls-1" d="M94.55,64.77l-.19.55c-.22.6-.57.78-.86.78a.46.46,0,0,1-.41-.2.44.44,0,0,1-.07-.26,2.89,2.89,0,0,1,.12-.6l.14-.54c-.5,1.15-1,1.6-1.51,1.6s-.7-.38-.7-.91c0-1.19,1.08-3.14,2.21-3.14.26,0,.45.2.47.56l.12-.46a2.94,2.94,0,0,0,.69-.1l-.93,3.3a1.06,1.06,0,0,0-.06.28c0,.1,0,.18.17.18s.39-.18.57-.76l.09-.28Zm-1-1.22.14-.55v-.16c0-.39-.14-.65-.41-.65-.66,0-1.52,1.77-1.52,3.09,0,.43.09.58.26.58.42,0,1.16-1.07,1.53-2.31"/><path class="cls-1" d="M101,65.33c-.21.63-.6.77-.9.77a.49.49,0,0,1-.47-.22.48.48,0,0,1-.06-.24,1.81,1.81,0,0,1,.13-.59l.7-2.14a1,1,0,0,0,.08-.37c0-.14-.05-.25-.24-.25-.59,0-1.45,1.37-2,3.18l-.13.52h-.65l.9-3.2a1.35,1.35,0,0,0,0-.29c0-.1,0-.18-.16-.18s-.37.18-.58.76l-.1.28h-.14l.19-.54c.21-.63.56-.77.89-.77a.39.39,0,0,1,.44.44,2.25,2.25,0,0,1-.11.6l-.25,1c.64-1.53,1.19-2.06,1.87-2.06.45,0,.6.24.6.56a2,2,0,0,1-.11.57l-.73,2.18a1.11,1.11,0,0,0,0,.28c0,.11,0,.18.17.18s.37-.16.58-.76l.1-.28h.14Z"/><path class="cls-1" d="M107.55,61.62a.45.45,0,0,1-.42.44.2.2,0,0,1-.21-.22.39.39,0,0,1,.1-.27h0a.45.45,0,0,0-.18.07,1.52,1.52,0,0,0-.41.49.73.73,0,0,1,.56.76,1.62,1.62,0,0,1-1.48,1.51c-.44.25-.89.44-.89.64s.16.18.45.25l.54.14c.52.14.85.28.85.65,0,.54-.71,1.38-2.22,1.38-.78,0-1.13-.23-1.13-.54s.28-.7,1.27-1.09a.43.43,0,0,1-.28-.39c0-.29.17-.55,1.15-1-.61,0-1-.27-1-.81a1.6,1.6,0,0,1,1.69-1.54,2.17,2.17,0,0,1,.38,0,2.12,2.12,0,0,1,.49-.56.92.92,0,0,1,.48-.16c.2,0,.33.07.33.26m-3.1,4.24c-.67.36-.76.7-.76.92s.31.55.71.55c.68,0,1.5-.42,1.5-1,0-.13-.15-.16-.44-.24Zm1.83-3.19c0-.27-.1-.49-.45-.49-.84,0-1,1.36-1,1.6s.18.49.45.49c.84,0,1-1,1-1.6"/><path class="cls-1" d="M110.28,64.34a3.63,3.63,0,0,0-.08.73c0,.5.2.71.51.71a1.4,1.4,0,0,0,1.15-.74l.12.06a1.89,1.89,0,0,1-1.5,1,.92.92,0,0,1-1-1.06c0-1.08,1-3,2.46-3a.48.48,0,0,1,.55.49c0,.91-1.37,1.51-2.23,1.8m0-.14a3.75,3.75,0,0,0,1-.48,1.48,1.48,0,0,0,.58-1.19c0-.29,0-.34-.12-.34-.48,0-1.2.94-1.48,2"/><path class="cls-1" d="M119.94,65.36a.52.52,0,0,0,0,.17.28.28,0,0,0,.32.29c.22,0,.44-.13.67-.75l.1-.29h.14l-.15.47c-.22.65-.57.85-1,.85s-.67-.24-.67-.62a1.82,1.82,0,0,1,.07-.43l.79-2.75h-.67l0-.15h.68l.32-1.13a2.42,2.42,0,0,0,.68-.11l-.36,1.24h1l0,.15h-1Z"/><path class="cls-1" d="M127.26,65.33c-.21.63-.6.77-.9.77s-.53-.18-.53-.46a2.06,2.06,0,0,1,.12-.59l.71-2.14a1.11,1.11,0,0,0,.08-.37.22.22,0,0,0-.24-.25c-.55,0-1.27,1.11-1.83,2.77l-.27.93h-.65l1.48-5a.88.88,0,0,0,0-.21c0-.19-.14-.28-.51-.28l0-.16a2.86,2.86,0,0,0,1.35-.31l-1.08,3.71c.56-1.25,1.06-1.71,1.69-1.71.45,0,.6.24.6.56a2,2,0,0,1-.11.57l-.73,2.18a1.19,1.19,0,0,0-.05.28c0,.11,0,.18.17.18s.37-.16.58-.76l.1-.28h.14Z"/><path class="cls-1" d="M131,64.34a3,3,0,0,0-.09.73c0,.5.2.71.52.71a1.4,1.4,0,0,0,1.15-.74l.12.06a1.91,1.91,0,0,1-1.5,1,.93.93,0,0,1-1-1.06c0-1.08,1-3,2.47-3a.49.49,0,0,1,.55.49c0,.91-1.37,1.51-2.23,1.8m0-.14a3.75,3.75,0,0,0,1-.48,1.48,1.48,0,0,0,.58-1.19c0-.29,0-.34-.12-.34-.49,0-1.2.94-1.48,2"/><path class="cls-1" d="M144.41,63.55c0,1.13-.53,2.55-1.84,2.55a.79.79,0,0,1-.79-.46,1.55,1.55,0,0,1-1,.46.81.81,0,0,1-.93-.85c0-.94,1.16-2,2.15-2.8a2,2,0,0,1-.73.35c-.19,0-.3-.19-.47-.19s-.25.12-.37.47l-.09.27h-.14l.17-.54c.2-.59.44-.76.7-.76s.39.29.69.29a.9.9,0,0,0,.6-.23l.1-.15.15.08c-1,.87-2,2-2,3.16,0,.5.16.67.41.67a1.21,1.21,0,0,0,.78-.35,1.49,1.49,0,0,1-.06-.45c0-.88.68-1.76,1.09-1.76.22,0,.26.3.26.52a2,2,0,0,1-.85,1.56.62.62,0,0,0,.59.49c1,0,1.48-1.38,1.48-2.32a1.77,1.77,0,0,0-.06-.49c-.28,0-.71-.25-.71-.66a.32.32,0,0,1,.32-.36c.29,0,.46.38.55.88a3,3,0,0,1,.06.62m-2.33,1.22a1.86,1.86,0,0,0,.06.48,2,2,0,0,0,.72-1.42c0-.21,0-.36-.14-.36s-.64.65-.64,1.3"/><path class="cls-1" d="M149.43,62.05c.62,0,1,.38,1,1.17,0,1.1-.76,2.88-2.16,2.88-.62,0-1-.38-1-1.18,0-1.09.76-2.87,2.16-2.87m-1.52,3.25c0,.45.14.65.43.65.8,0,1.47-1.77,1.47-3.1,0-.46-.15-.65-.43-.65-.8,0-1.47,1.77-1.47,3.1"/><path class="cls-1" d="M156.42,62.47a.54.54,0,0,1-.53.54.26.26,0,0,1-.29-.27.5.5,0,0,1,.33-.48.11.11,0,0,0-.08,0c-.55,0-1.21,1.3-1.76,3.14l-.16.62h-.65l.89-3.2a1,1,0,0,0,.06-.3c0-.12-.06-.17-.16-.17s-.39.21-.58.76l-.1.28h-.14l.19-.54c.21-.63.59-.77.9-.77a.38.38,0,0,1,.43.43,2.71,2.71,0,0,1-.11.61l-.24,1c.54-1.46,1-2,1.56-2a.41.41,0,0,1,.44.42"/><path class="cls-1" d="M159.24,65.36a1,1,0,0,0-.05.26c0,.13.05.2.17.2s.36-.19.56-.76l.1-.28h.14l-.18.55c-.2.56-.52.77-.9.77s-.52-.21-.52-.49a2,2,0,0,1,.11-.56l1.21-4a.59.59,0,0,0,0-.21c0-.19-.13-.28-.51-.28l.06-.16a2.87,2.87,0,0,0,1.33-.31Z"/><path class="cls-1" d="M166.48,64.78l-.17.55c-.19.6-.57.77-.87.77a.42.42,0,0,1-.47-.47,2.6,2.6,0,0,1,.1-.58l.09-.37c-.48,1-.95,1.42-1.48,1.42s-.78-.31-.78-1c0-1.19,1-3.06,2.41-3.06a.48.48,0,0,1,.46.36l.37-1.4a.81.81,0,0,0,0-.2c0-.2-.13-.29-.51-.29l.05-.16a2.8,2.8,0,0,0,1.32-.31l-1.46,5.31a.85.85,0,0,0,0,.25c0,.12,0,.21.18.21s.35-.19.55-.76l.09-.28Zm-1-1.14.28-1c-.07-.27-.23-.38-.4-.38-1,0-1.75,1.79-1.75,3,0,.44.11.65.32.65.44,0,1.17-1,1.55-2.22"/><path class="cls-1" d="M80.74,80.6a.74.74,0,0,0,0-.23.21.21,0,0,0-.09-.19.6.6,0,0,0-.28-.07l0-.1.51,0,.48,0,0,.1a.94.94,0,0,0-.28,0,.36.36,0,0,0-.15.15.92.92,0,0,0-.11.29l-.39,1.51A2.74,2.74,0,0,1,80,83.18a1.44,1.44,0,0,1-.46.35,1.4,1.4,0,0,1-.58.12,1,1,0,0,1-.77-.27.72.72,0,0,1-.18-.51,2.87,2.87,0,0,1,.13-.74l.41-1.58a1.08,1.08,0,0,0,0-.25.12.12,0,0,0,0-.11.14.14,0,0,0-.1-.06l-.2,0,0-.1.65,0,.63,0,0,.1a1.42,1.42,0,0,0-.28,0,.24.24,0,0,0-.14.12,1.22,1.22,0,0,0-.1.28l-.45,1.66a3.28,3.28,0,0,0-.11.69.63.63,0,0,0,.14.43.59.59,0,0,0,.46.15,1.05,1.05,0,0,0,.83-.35,2.27,2.27,0,0,0,.47-1ZM73.6,83.06a.76.76,0,0,0,0,.25.15.15,0,0,0,.07.14.45.45,0,0,0,.24,0,1.71,1.71,0,0,0,1.07-.34,2.15,2.15,0,0,0,.67-.91A3.33,3.33,0,0,0,75.82,81a.85.85,0,0,0-.25-.68,1.3,1.3,0,0,0-.82-.22.57.57,0,0,0-.25,0,.22.22,0,0,0-.14.13.9.9,0,0,0-.1.27Zm-.09-3L74,80h.13l.76,0a1.74,1.74,0,0,1,1.06.28,1,1,0,0,1,.36.84A2.38,2.38,0,0,1,76,82.32a2.62,2.62,0,0,1-.86.92,2.25,2.25,0,0,1-1.22.34H72.61v-.1a.78.78,0,0,0,.26,0,.24.24,0,0,0,.14-.12.88.88,0,0,0,.11-.27l.66-2.5a1.28,1.28,0,0,0,0-.25c0-.07,0-.12-.07-.14a.71.71,0,0,0-.27,0Zm-4.2,0,1.46,0,1,0a5.55,5.55,0,0,0-.19.6,1.82,1.82,0,0,0-.07.31h-.12a2.93,2.93,0,0,0,0-.41.45.45,0,0,0,0-.22.23.23,0,0,0-.16-.12.8.8,0,0,0-.3,0h-.37a.91.91,0,0,0-.27,0,.22.22,0,0,0-.14.11,1.15,1.15,0,0,0-.11.28l-.32,1.19h.34a.43.43,0,0,0,.37-.16,1,1,0,0,0,.19-.3l.08-.21h.12c-.07.21-.12.38-.15.5l-.06.22c0,.15-.1.39-.16.71h-.11s0-.07,0-.14a1.48,1.48,0,0,0,0-.2.36.36,0,0,0-.07-.24.34.34,0,0,0-.27-.08H69.7l-.33,1.21a.85.85,0,0,0,0,.24.16.16,0,0,0,0,.11.19.19,0,0,0,.11,0l.2,0H70a1.18,1.18,0,0,0,.5-.09.72.72,0,0,0,.31-.27,2.81,2.81,0,0,0,.25-.54h.12a3.67,3.67,0,0,0-.11.37,5.76,5.76,0,0,0-.14.64H68.36l0-.1a.88.88,0,0,0,.28,0,.31.31,0,0,0,.14-.12,1.11,1.11,0,0,0,.1-.27l.67-2.5a1.08,1.08,0,0,0,.05-.25.12.12,0,0,0,0-.11.14.14,0,0,0-.1-.06l-.2,0Zm-4.75,0,.57,0,.39,0,0,.1a.9.9,0,0,0-.51.44l-2,3.06h-.07l-.4-3.17a.39.39,0,0,0-.1-.25.27.27,0,0,0-.16-.08l0-.1.55,0,.6,0,0,.1-.24,0a.2.2,0,0,0-.13.08.31.31,0,0,0,0,.19s0,.06,0,.13L63.29,83l1.4-2.14a1.15,1.15,0,0,0,.22-.5.17.17,0,0,0-.1-.16.61.61,0,0,0-.28-.06Zm-6,1.78a1.35,1.35,0,0,0,1-.3,1.07,1.07,0,0,0,.31-.79.58.58,0,0,0-.16-.45.71.71,0,0,0-.48-.14.49.49,0,0,0-.24,0,.29.29,0,0,0-.14.13,1.3,1.3,0,0,0-.1.27l-.33,1.24ZM60.38,83l0,.07a1.09,1.09,0,0,1-.23.46.47.47,0,0,1-.37.15.49.49,0,0,1-.25-.06.41.41,0,0,1-.16-.16.54.54,0,0,1-.05-.22v0l0-.57v-.15a.58.58,0,0,0-.07-.33.46.46,0,0,0-.28-.18,2.69,2.69,0,0,0-.58,0l-.3,1.16a.77.77,0,0,0,0,.24.16.16,0,0,0,.07.15.76.76,0,0,0,.27,0l0,.1H57.11l0-.1a.88.88,0,0,0,.28,0,.31.31,0,0,0,.14-.12.81.81,0,0,0,.1-.27l.67-2.5a1,1,0,0,0,0-.24.16.16,0,0,0-.07-.15.56.56,0,0,0-.27,0l0-.1.62,0h.74a1.22,1.22,0,0,1,.75.19.61.61,0,0,1,.26.52.9.9,0,0,1-.16.5,1.36,1.36,0,0,1-.46.39,2.4,2.4,0,0,1-.7.23l.18,0a1.41,1.41,0,0,1,.31.1.42.42,0,0,1,.18.17.6.6,0,0,1,.06.29v.11l0,.51v.11c0,.2,0,.31.15.31a.19.19,0,0,0,.16-.11,2,2,0,0,0,.15-.32l0-.07Zm-7.47-2a4.3,4.3,0,0,1,.23-.67,1.49,1.49,0,0,1,.29-.42.82.82,0,0,1,.28-.19,1,1,0,0,1,.35-.06.54.54,0,0,1,.35.1.32.32,0,0,1,.12.26.32.32,0,0,1,0,.16.3.3,0,0,1-.12.13.26.26,0,0,1-.17,0,.21.21,0,0,1-.15,0,.15.15,0,0,1-.06-.13.32.32,0,0,1,.08-.21.57.57,0,0,1,.21-.13s0,0-.07-.08a.38.38,0,0,0-.16,0,.47.47,0,0,0-.29.13.79.79,0,0,0-.18.32c0,.14-.09.29-.14.46s-.07.29-.09.36h.59l0,.1h-.59l-.9,3.37a1.53,1.53,0,0,0-.46.07l.92-3.44h-.46l0-.1h.45ZM50,81a.64.64,0,0,0-.49.33,3,3,0,0,0-.37.82,3.54,3.54,0,0,0-.13.94c0,.3.09.44.28.44a.61.61,0,0,0,.49-.33,2.64,2.64,0,0,0,.37-.81,3.64,3.64,0,0,0,.14-1,.68.68,0,0,0-.07-.33A.25.25,0,0,0,50,81m-1.43,1.84a2.32,2.32,0,0,1,.18-.85,2.08,2.08,0,0,1,.51-.77,1.09,1.09,0,0,1,.77-.32.68.68,0,0,1,.51.2.85.85,0,0,1,.18.59,2.32,2.32,0,0,1-.18.85,2,2,0,0,1-.5.78,1.09,1.09,0,0,1-.78.31.62.62,0,0,1-.5-.2.81.81,0,0,1-.19-.59M44.35,81a.56.56,0,0,0-.36.18,2.1,2.1,0,0,0-.37.51,2.7,2.7,0,0,0-.27.66,2.36,2.36,0,0,0,.69-.32,1.12,1.12,0,0,0,.29-.36,1,1,0,0,0,.1-.45.39.39,0,0,0,0-.18.05.05,0,0,0-.06,0m.13,2a1.87,1.87,0,0,1-.26.33,1.48,1.48,0,0,1-.35.25,1,1,0,0,1-.4.09.64.64,0,0,1-.49-.18.72.72,0,0,1-.18-.53,2.09,2.09,0,0,1,.23-.86,2.49,2.49,0,0,1,.6-.82,1.22,1.22,0,0,1,.83-.34.4.4,0,0,1,.27.09.29.29,0,0,1,.11.24.84.84,0,0,1-.46.71,4.27,4.27,0,0,1-1.05.51,2.12,2.12,0,0,0-.06.49c0,.32.12.48.35.48a1,1,0,0,0,.78-.5Zm-3.82-2.07a4.9,4.9,0,0,0-.63,1,2.86,2.86,0,0,0-.27,1,.68.68,0,0,0,0,.12c0,.28.07.43.22.43a.93.93,0,0,0,.67-.31,2.32,2.32,0,0,0,.46-.74,2.27,2.27,0,0,0,.19-.77.73.73,0,0,1-.27-.22.51.51,0,0,1-.1-.32A.19.19,0,0,1,41,81a.2.2,0,0,1,.15-.06.24.24,0,0,1,.21.14.81.81,0,0,1,.07.38,1.34,1.34,0,0,1,0,.19,3.3,3.3,0,0,1-.27,1,1.91,1.91,0,0,1-.54.75,1.13,1.13,0,0,1-.78.29.54.54,0,0,1-.44-.16.59.59,0,0,1-.14-.41v0a2.11,2.11,0,0,1,.35-.93,4.89,4.89,0,0,1,.82-1,2.07,2.07,0,0,0-.25.13l-.24.14a.45.45,0,0,1-.17.05l-.09,0-.11-.06a.24.24,0,0,0-.12,0,.14.14,0,0,0-.13.07.75.75,0,0,0-.12.24l-.06.19H39l.11-.37c.09-.34.25-.51.47-.51a.28.28,0,0,1,.19.07l.14.09a.18.18,0,0,0,.13,0,.65.65,0,0,0,.43-.16l.05-.1ZM37,81.42a.54.54,0,0,0,0-.19c0-.08,0-.12-.11-.12a.26.26,0,0,0-.21.12,1.76,1.76,0,0,0-.19.39l-.07.19H36.4l.13-.37a.68.68,0,0,1,.27-.4.59.59,0,0,1,.35-.12.3.3,0,0,1,.34.32,1.18,1.18,0,0,1-.09.38l-.54,1.53a.93.93,0,0,0,0,.19c0,.08,0,.13.12.13a.26.26,0,0,0,.2-.12,1.62,1.62,0,0,0,.2-.4l.07-.19h.09l-.13.37a.76.76,0,0,1-.26.4.6.6,0,0,1-.36.12c-.23,0-.35-.1-.35-.3a1.17,1.17,0,0,1,.09-.4Zm.15-1.28a.41.41,0,0,1,0-.19.67.67,0,0,1,.14-.15.41.41,0,0,1,.18,0,.26.26,0,0,1,.19.08.24.24,0,0,1,.07.18.41.41,0,0,1-.05.19.38.38,0,0,1-.14.14.33.33,0,0,1-.19.06.25.25,0,0,1-.18-.08.24.24,0,0,1-.07-.18m-3.18,3a.5.5,0,0,0,0,.12.2.2,0,0,0,.06.15.28.28,0,0,0,.16,0,.35.35,0,0,0,.24-.11,1.31,1.31,0,0,0,.21-.4l.07-.2h.1l-.11.32a.88.88,0,0,1-.27.44.68.68,0,0,1-.42.13.45.45,0,0,1-.34-.11.42.42,0,0,1-.11-.31,1.11,1.11,0,0,1,0-.28l.53-1.86H33.7l0-.1h.46l.22-.77a1.37,1.37,0,0,0,.45-.07l-.24.84h.67v.1h-.68Zm-2.61-1.58a.62.62,0,0,0,0-.12.61.61,0,0,0-.07-.32.23.23,0,0,0-.21-.11c-.14,0-.29.11-.46.33a3.05,3.05,0,0,0-.4.83,2.86,2.86,0,0,0-.17.92.71.71,0,0,0,.05.3.14.14,0,0,0,.13.09c.09,0,.2-.07.33-.22A2.8,2.8,0,0,0,31,82.7a4.76,4.76,0,0,0,.31-.77Zm.6,1.19-.12.37a.9.9,0,0,1-.26.4.51.51,0,0,1-.32.12.47.47,0,0,1-.17,0,.36.36,0,0,1-.11-.1.34.34,0,0,1,0-.18.39.39,0,0,1,0-.15L31,83a.41.41,0,0,1,0-.1l.09-.37a2.86,2.86,0,0,1-.49.83.73.73,0,0,1-.53.25.41.41,0,0,1-.35-.16.75.75,0,0,1-.12-.45,2.27,2.27,0,0,1,.22-.91,2.72,2.72,0,0,1,.56-.86,1,1,0,0,1,.71-.35.27.27,0,0,1,.22.1.45.45,0,0,1,.1.28l.08-.31a2,2,0,0,0,.47-.07l-.63,2.23a.63.63,0,0,0,0,.19c0,.08,0,.12.11.12s.28-.17.39-.51l.06-.19Zm-4.26-1.34a.54.54,0,0,0,0-.19c0-.08,0-.12-.11-.12a.26.26,0,0,0-.21.12,1.76,1.76,0,0,0-.19.39l-.07.19H27.1l.13-.37a.78.78,0,0,1,.27-.4.59.59,0,0,1,.35-.12.3.3,0,0,1,.34.32,1.18,1.18,0,0,1-.09.38l-.54,1.53a.93.93,0,0,0,0,.19c0,.08,0,.13.12.13a.26.26,0,0,0,.2-.12A1.62,1.62,0,0,0,28,83l.07-.19h.09l-.13.37a.76.76,0,0,1-.26.4.6.6,0,0,1-.36.12c-.23,0-.35-.1-.35-.3a1.17,1.17,0,0,1,.09-.4Zm.15-1.28a.41.41,0,0,1,.05-.19.67.67,0,0,1,.14-.15.41.41,0,0,1,.19,0,.25.25,0,0,1,.18.08.24.24,0,0,1,.07.18.41.41,0,0,1-.05.19.38.38,0,0,1-.14.14.33.33,0,0,1-.19.06.25.25,0,0,1-.18-.08.24.24,0,0,1-.07-.18m-3.18,3a.5.5,0,0,0,0,.12.2.2,0,0,0,.06.15.28.28,0,0,0,.16,0,.35.35,0,0,0,.24-.11,1.31,1.31,0,0,0,.21-.4l.07-.2h.1l-.11.32a.88.88,0,0,1-.27.44.68.68,0,0,1-.42.13.45.45,0,0,1-.34-.11.42.42,0,0,1-.11-.31,1.11,1.11,0,0,1,.05-.28l.53-1.86H24.4l0-.1h.46l.22-.77a1.32,1.32,0,0,0,.45-.07l-.24.84H26v.1h-.68Zm-2.48-1.73a.81.81,0,0,0,0-.19c0-.08,0-.12-.1-.12a.26.26,0,0,0-.21.12,1.41,1.41,0,0,0-.19.39l-.07.19h-.1l.13-.37A.78.78,0,0,1,22,81a.62.62,0,0,1,.36-.12.29.29,0,0,1,.33.32,1.12,1.12,0,0,1-.08.38l-.54,1.53a.54.54,0,0,0,0,.19c0,.08,0,.13.12.13a.26.26,0,0,0,.2-.12,2.07,2.07,0,0,0,.2-.4l.06-.19h.1l-.13.37a.82.82,0,0,1-.26.4.6.6,0,0,1-.36.12c-.24,0-.35-.1-.35-.3a1.17,1.17,0,0,1,.09-.4Zm.15-1.28a.32.32,0,0,1,.05-.19.5.5,0,0,1,.14-.15.41.41,0,0,1,.18,0,.26.26,0,0,1,.19.08A.29.29,0,0,1,23,80a.41.41,0,0,1-.05.19.4.4,0,0,1-.15.14.32.32,0,0,1-.18.06.22.22,0,0,1-.18-.08.24.24,0,0,1-.07-.18m-2.48,3c-.12.35-.32.52-.61.52a.36.36,0,0,1-.32-.14.43.43,0,0,1,0-.17A1.23,1.23,0,0,1,19,83l.48-1.45a.92.92,0,0,0,.05-.25c0-.11-.05-.17-.16-.17a.64.64,0,0,0-.44.28,3.79,3.79,0,0,0-.48.78,6.89,6.89,0,0,0-.41,1.09l-.09.35h-.44l.61-2.16a.89.89,0,0,0,0-.19c0-.08,0-.12-.11-.12a.2.2,0,0,0-.13,0,.55.55,0,0,0-.12.16,3.33,3.33,0,0,0-.14.31l-.06.19h-.1l.13-.37c.12-.35.32-.52.6-.52a.27.27,0,0,1,.3.3,2.23,2.23,0,0,1-.07.4l-.18.69a5.88,5.88,0,0,1,.42-.81,1.65,1.65,0,0,1,.4-.45.9.9,0,0,1,.45-.13c.27,0,.4.13.4.38a1.23,1.23,0,0,1-.07.38l-.49,1.47a.58.58,0,0,0,0,.19c0,.08,0,.13.12.13a.27.27,0,0,0,.2-.12,1.67,1.67,0,0,0,.19-.4l.06-.19H20Zm-4.42-1.71a.54.54,0,0,0,0-.19c0-.08,0-.12-.11-.12a.26.26,0,0,0-.2.12,1.71,1.71,0,0,0-.2.39l-.07.19h-.09l.13-.37a.78.78,0,0,1,.27-.4.59.59,0,0,1,.35-.12c.23,0,.34.11.34.32a1.43,1.43,0,0,1-.08.38l-.54,1.53a.54.54,0,0,0,0,.19c0,.08,0,.13.12.13a.24.24,0,0,0,.19-.12,1.62,1.62,0,0,0,.2-.4l.07-.19H16l-.13.37a.83.83,0,0,1-.27.4.59.59,0,0,1-.35.12q-.36,0-.36-.3a1.17,1.17,0,0,1,.09-.4Zm.15-1.28a.33.33,0,0,1,.06-.19.4.4,0,0,1,.14-.15.41.41,0,0,1,.18,0,.25.25,0,0,1,.18.08.24.24,0,0,1,.07.18.32.32,0,0,1-.05.19.32.32,0,0,1-.14.14.32.32,0,0,1-.18.06.26.26,0,0,1-.19-.08.24.24,0,0,1-.07-.18m-4.9,3a.63.63,0,0,1-.61.52.34.34,0,0,1-.31-.14.31.31,0,0,1,0-.17A1.16,1.16,0,0,1,9.84,83l.48-1.45a.92.92,0,0,0,0-.25c0-.11,0-.17-.16-.17a.64.64,0,0,0-.44.28,3.79,3.79,0,0,0-.48.78,8,8,0,0,0-.41,1.09l-.09.35H8.36L9,81.42a1.08,1.08,0,0,0,0-.19c0-.08,0-.12-.11-.12a.21.21,0,0,0-.14,0,.55.55,0,0,0-.12.16,1.93,1.93,0,0,0-.13.31l-.07.19h-.1l.13-.37c.12-.35.32-.52.6-.52a.27.27,0,0,1,.3.3,2.23,2.23,0,0,1-.07.4l-.18.69a5.88,5.88,0,0,1,.42-.81,1.52,1.52,0,0,1,.41-.45.84.84,0,0,1,.44-.13c.27,0,.4.13.4.38a1.23,1.23,0,0,1-.07.38l-.49,1.47a.58.58,0,0,0,0,.19c0,.08,0,.13.12.13a.26.26,0,0,0,.2-.12,1.67,1.67,0,0,0,.19-.4l.07-.19h.09ZM6.18,81.57a.62.62,0,0,0,0-.12.61.61,0,0,0-.08-.32.2.2,0,0,0-.2-.11c-.14,0-.3.11-.46.33a3.05,3.05,0,0,0-.4.83,2.86,2.86,0,0,0-.17.92.71.71,0,0,0,0,.3.14.14,0,0,0,.13.09c.09,0,.2-.07.33-.22a2.8,2.8,0,0,0,.39-.57,4.76,4.76,0,0,0,.31-.77Zm.6,1.19-.12.37a.9.9,0,0,1-.26.4.51.51,0,0,1-.32.12.43.43,0,0,1-.17,0,.27.27,0,0,1-.11-.1.34.34,0,0,1,0-.18.76.76,0,0,1,0-.15,1.13,1.13,0,0,0,0-.15.41.41,0,0,1,0-.1l.09-.37a2.86,2.86,0,0,1-.49.83.75.75,0,0,1-.53.25.41.41,0,0,1-.35-.16A.75.75,0,0,1,4.44,83a2.42,2.42,0,0,1,.21-.91,2.93,2.93,0,0,1,.57-.86,1,1,0,0,1,.71-.35.27.27,0,0,1,.22.1.45.45,0,0,1,.1.28L6.33,81a1.78,1.78,0,0,0,.46-.07l-.63,2.23a1,1,0,0,0,0,.19c0,.08,0,.12.11.12s.28-.17.39-.51l.06-.19Z"/><path class="cls-1" d="M156.05,80a1,1,0,0,0-.74.36,3,3,0,0,0-.57.94,3.47,3.47,0,0,0-.22,1.18,1.6,1.6,0,0,0,.09.56.84.84,0,0,0,.25.37.56.56,0,0,0,.36.12,1,1,0,0,0,.73-.36,2.57,2.57,0,0,0,.57-.94,3.21,3.21,0,0,0,.22-1.18,1.6,1.6,0,0,0-.09-.56.81.81,0,0,0-.24-.36.55.55,0,0,0-.36-.13M154,82.44a2.72,2.72,0,0,1,.27-1.15,2.67,2.67,0,0,1,.75-1,1.71,1.71,0,0,1,1.08-.38,1.41,1.41,0,0,1,.64.14,1,1,0,0,1,.41.42,1.46,1.46,0,0,1,.14.66,2.75,2.75,0,0,1-.27,1.15,2.55,2.55,0,0,1-.75,1,1.68,1.68,0,0,1-1.09.38,1.25,1.25,0,0,1-.63-.14.9.9,0,0,1-.41-.41,1.49,1.49,0,0,1-.14-.66m-2.3.61a1,1,0,0,0,0,.24.16.16,0,0,0,0,.11.17.17,0,0,0,.1.06l.21,0,0,.1h-1.29l0-.1a.85.85,0,0,0,.27,0,.27.27,0,0,0,.14-.12,1.3,1.3,0,0,0,.1-.27l.66-2.5a1.08,1.08,0,0,0,.05-.25.12.12,0,0,0,0-.11.17.17,0,0,0-.1-.06l-.2,0,0-.1.64,0,.65,0,0,.1a1.3,1.3,0,0,0-.27,0,.24.24,0,0,0-.14.12,1.15,1.15,0,0,0-.11.28Zm-3.22-2.91a4.7,4.7,0,0,0-.65-.06,1.1,1.1,0,0,0-.56.09.39.39,0,0,1,.06.13.5.5,0,0,1,0,.16.29.29,0,0,1-.07.2.2.2,0,0,1-.18.09.21.21,0,0,1-.17-.07.24.24,0,0,1-.05-.18.4.4,0,0,1,.26-.39,1.53,1.53,0,0,1,.68-.12l.38,0,.59.07a6.21,6.21,0,0,0,.69,0l.37,0a1.15,1.15,0,0,0,.28-.09.37.37,0,0,1-.13-.28.29.29,0,0,1,.07-.2.22.22,0,0,1,.18-.08.24.24,0,0,1,.17.07.25.25,0,0,1,.06.17.38.38,0,0,1-.07.21.66.66,0,0,1-.17.16,1.57,1.57,0,0,1-.8.16l-.52,0-.74,2.8a.91.91,0,0,0,0,.25.21.21,0,0,0,0,.14.23.23,0,0,0,.13.06.81.81,0,0,0,.25,0l0,.1h-1.49l0-.1a.87.87,0,0,0,.33,0,.45.45,0,0,0,.19-.14,1.7,1.7,0,0,0,.12-.29Zm-3.5.46a1.11,1.11,0,0,0,0-.23.23.23,0,0,0-.08-.19.64.64,0,0,0-.29-.07l0-.1.51,0,.47,0,0,.1a.87.87,0,0,0-.27,0,.33.33,0,0,0-.16.15,1.34,1.34,0,0,0-.1.29l-.39,1.51a2.6,2.6,0,0,1-.5,1.07,1.3,1.3,0,0,1-.45.35,1.43,1.43,0,0,1-.58.12,1,1,0,0,1-.78-.27.77.77,0,0,1-.17-.51,3.25,3.25,0,0,1,.12-.74l.42-1.58a1,1,0,0,0,0-.25.16.16,0,0,0,0-.11.17.17,0,0,0-.11-.06l-.2,0,0-.1.65,0,.64,0,0,.1a1.31,1.31,0,0,0-.28,0,.24.24,0,0,0-.14.12.88.88,0,0,0-.1.28l-.45,1.67a3.11,3.11,0,0,0-.11.68.59.59,0,0,0,.14.43.58.58,0,0,0,.45.15,1.06,1.06,0,0,0,.84-.35,2.39,2.39,0,0,0,.47-1Zm-5.56-.46a4.7,4.7,0,0,0-.65-.06,1.1,1.1,0,0,0-.56.09.81.81,0,0,1,.06.13.5.5,0,0,1,0,.16.29.29,0,0,1-.07.2.2.2,0,0,1-.18.09.19.19,0,0,1-.17-.07.24.24,0,0,1-.05-.18.4.4,0,0,1,.26-.39,1.53,1.53,0,0,1,.68-.12l.38,0,.59.07a6.21,6.21,0,0,0,.69,0l.37,0a1.31,1.31,0,0,0,.28-.09.37.37,0,0,1-.13-.28.34.34,0,0,1,.06-.2.26.26,0,0,1,.19-.08.24.24,0,0,1,.17.07.25.25,0,0,1,.06.17.38.38,0,0,1-.07.21.66.66,0,0,1-.17.16,1.57,1.57,0,0,1-.8.16l-.52,0-.74,2.8a.91.91,0,0,0,0,.25.21.21,0,0,0,0,.14.23.23,0,0,0,.13.06.81.81,0,0,0,.25,0l0,.1H138l0-.1a.91.91,0,0,0,.33,0,.45.45,0,0,0,.19-.14,1.7,1.7,0,0,0,.12-.29Zm-4.12,2.91a1,1,0,0,0,0,.24.16.16,0,0,0,0,.11.17.17,0,0,0,.1.06l.21,0,0,.1h-1.29l0-.1a.85.85,0,0,0,.27,0,.27.27,0,0,0,.14-.12,1.3,1.3,0,0,0,.1-.27l.66-2.5a1.08,1.08,0,0,0,.05-.25.16.16,0,0,0,0-.11.17.17,0,0,0-.1-.06l-.2,0,0-.1.64,0,.65,0,0,.1a1.3,1.3,0,0,0-.27,0,.29.29,0,0,0-.15.12,1.22,1.22,0,0,0-.1.28Zm-3.22-2.91a4.7,4.7,0,0,0-.65-.06,1.1,1.1,0,0,0-.56.09.81.81,0,0,1,.06.13.5.5,0,0,1,0,.16.29.29,0,0,1-.07.2.2.2,0,0,1-.18.09.19.19,0,0,1-.17-.07.24.24,0,0,1-.05-.18.4.4,0,0,1,.26-.39,1.53,1.53,0,0,1,.68-.12l.38,0,.59.07a6.21,6.21,0,0,0,.69,0l.37,0a1.31,1.31,0,0,0,.28-.09.37.37,0,0,1-.13-.28.34.34,0,0,1,.06-.2.26.26,0,0,1,.19-.08.24.24,0,0,1,.17.07.25.25,0,0,1,0,.17.37.37,0,0,1-.06.21.66.66,0,0,1-.17.16,1.57,1.57,0,0,1-.8.16l-.52,0-.74,2.8a.91.91,0,0,0,0,.25.21.21,0,0,0,0,.14.23.23,0,0,0,.13.06.81.81,0,0,0,.25,0l0,.1h-1.49l0-.1a.87.87,0,0,0,.33,0,.45.45,0,0,0,.19-.14,1.7,1.7,0,0,0,.12-.29ZM128.94,80a5.9,5.9,0,0,0-.3,1h-.1a1.33,1.33,0,0,0,0-.28.78.78,0,0,0-.07-.35.56.56,0,0,0-.24-.24.83.83,0,0,0-.41-.09.76.76,0,0,0-.51.16.62.62,0,0,0-.19.48,1.09,1.09,0,0,0,.42.76c.28.26.5.47.64.63a.91.91,0,0,1,0,1.15,1.12,1.12,0,0,1-.49.33,1.72,1.72,0,0,1-.6.1,1.27,1.27,0,0,1-.43-.06,1.69,1.69,0,0,1-.29-.17.27.27,0,0,0-.18-.07.14.14,0,0,0-.1.05.94.94,0,0,0-.1.22h-.11a6.9,6.9,0,0,0,.35-1.21h.1c0,.1,0,.18,0,.23a1,1,0,0,0,0,.18c0,.49.3.73.82.73a.92.92,0,0,0,.55-.15.6.6,0,0,0,.2-.48,1.09,1.09,0,0,0-.39-.78,7.56,7.56,0,0,1-.58-.59.94.94,0,0,1-.2-.62.89.89,0,0,1,.16-.54,1,1,0,0,1,.41-.34,1.41,1.41,0,0,1,.54-.11,1.25,1.25,0,0,1,.36,0,1.1,1.1,0,0,1,.3.16.33.33,0,0,0,.16.09.09.09,0,0,0,.08-.06.77.77,0,0,0,.09-.2Zm-5.23,2.82c.14-.65.29-1.21.42-1.68a4,4,0,0,1,.42-1,.66.66,0,0,1,.55-.32.3.3,0,0,1,.23.07.25.25,0,0,1,.07.19.51.51,0,0,1,0,.17.49.49,0,0,1-.11.14.25.25,0,0,1-.16.05.17.17,0,0,1-.14-.06.22.22,0,0,1,0-.14.33.33,0,0,1,0-.16.58.58,0,0,1,.11-.15h0a.49.49,0,0,0-.41.25,4.63,4.63,0,0,0-.47,1.18c-.16.56-.34,1.32-.55,2.29h-.11l-1.15-3.25c-.17.85-.32,1.56-.47,2.14a3.4,3.4,0,0,1-.42,1.14,1,1,0,0,1-.23.23.54.54,0,0,1-.31.09q-.3,0-.3-.27a.35.35,0,0,1,0-.17.26.26,0,0,1,.1-.13.21.21,0,0,1,.16,0,.17.17,0,0,1,.15,0,.33.33,0,0,1,0,.14.37.37,0,0,1,0,.17.53.53,0,0,1-.11.15h0a.49.49,0,0,0,.42-.26,4.42,4.42,0,0,0,.4-1.1c.14-.53.29-1.21.45-2.06a.37.37,0,0,0,0-.11.18.18,0,0,0,0-.13l-.11-.06-.24,0,0-.1.46,0,.4,0Zm-4.74.25a1,1,0,0,0,0,.24.16.16,0,0,0,0,.11.2.2,0,0,0,.11.06l.2,0,0,.1H118l0-.1a.83.83,0,0,0,.26,0,.24.24,0,0,0,.14-.12,1.23,1.23,0,0,0,.11-.27l.66-2.5a1,1,0,0,0,0-.25.16.16,0,0,0,0-.11.2.2,0,0,0-.11-.06l-.2,0,0-.1.64,0,.64,0,0,.1a1.31,1.31,0,0,0-.28,0,.27.27,0,0,0-.14.12,1.22,1.22,0,0,0-.1.28Zm-4.66-.53c0,.06-.07.2-.13.42a5.76,5.76,0,0,0-.14.64h-2.61l0-.1a.85.85,0,0,0,.27,0,.24.24,0,0,0,.14-.12,1,1,0,0,0,.11-.27l.67-2.5a1,1,0,0,0,0-.25.16.16,0,0,0,0-.11.17.17,0,0,0-.11-.06l-.2,0,0-.1.64,0,.65,0,0,.1a1.3,1.3,0,0,0-.27,0,.29.29,0,0,0-.15.12.88.88,0,0,0-.1.28l-.67,2.5a.93.93,0,0,0,0,.24.12.12,0,0,0,0,.11s0,0,.1,0l.2,0h.37a1.15,1.15,0,0,0,.5-.09.8.8,0,0,0,.32-.29,3.16,3.16,0,0,0,.26-.57Zm-5.09-1.92-1.08,1.53h1.16Zm.61,2.56a.38.38,0,0,0,.09.24.21.21,0,0,0,.16.08l0,.1H108.9l0-.1a.85.85,0,0,0,.27,0,.24.24,0,0,0,.13-.13.54.54,0,0,0,0-.25l0-.83h-1.24l-.38.53a1.15,1.15,0,0,0-.23.51c0,.13.12.21.37.21l0,.1h-1l0-.1a.94.94,0,0,0,.51-.44L109.55,80h.08Zm-4.62-.36c.15-.65.29-1.21.43-1.68a4,4,0,0,1,.42-1,.66.66,0,0,1,.54-.32.33.33,0,0,1,.24.07.29.29,0,0,1,.07.19.35.35,0,0,1,0,.17.33.33,0,0,1-.1.14.3.3,0,0,1-.16.05.18.18,0,0,1-.15-.06.21.21,0,0,1,0-.14.32.32,0,0,1,0-.16.44.44,0,0,1,.12-.15h0a.5.5,0,0,0-.41.25,5,5,0,0,0-.47,1.18c-.16.56-.34,1.32-.54,2.29H105l-1.15-3.25c-.17.85-.33,1.56-.47,2.14a3.91,3.91,0,0,1-.42,1.14,1.28,1.28,0,0,1-.24.23.49.49,0,0,1-.3.09q-.3,0-.3-.27a.51.51,0,0,1,0-.17.32.32,0,0,1,.1-.13.24.24,0,0,1,.16,0,.17.17,0,0,1,.15,0,.23.23,0,0,1,0,.14.35.35,0,0,1,0,.17.57.57,0,0,1-.12.15h0a.52.52,0,0,0,.42-.26,4.42,4.42,0,0,0,.4-1.1c.13-.53.28-1.21.44-2.06a.37.37,0,0,0,0-.11.25.25,0,0,0,0-.13l-.12-.06-.23,0,0-.1.45,0,.41,0Zm-5-2.77a1,1,0,0,0-.73.36,2.66,2.66,0,0,0-.57.94,3.24,3.24,0,0,0-.22,1.18,1.6,1.6,0,0,0,.09.56.91.91,0,0,0,.24.37.61.61,0,0,0,.37.12,1,1,0,0,0,.73-.36,2.57,2.57,0,0,0,.57-.94,3.21,3.21,0,0,0,.22-1.18,1.6,1.6,0,0,0-.09-.56.75.75,0,0,0-.25-.36.52.52,0,0,0-.36-.13m-2,2.41a2.72,2.72,0,0,1,.27-1.15,2.47,2.47,0,0,1,.75-1,1.71,1.71,0,0,1,1.08-.38,1.41,1.41,0,0,1,.64.14,1,1,0,0,1,.41.42,1.46,1.46,0,0,1,.14.66,2.75,2.75,0,0,1-.27,1.15,2.48,2.48,0,0,1-.76,1,1.66,1.66,0,0,1-1.08.38,1.29,1.29,0,0,1-.64-.14.93.93,0,0,1-.4-.41,1.37,1.37,0,0,1-.14-.66m-2.3.61a1.13,1.13,0,0,0,0,.24.16.16,0,0,0,0,.11.14.14,0,0,0,.1.06l.2,0,0,.1H94.85l0-.1a.74.74,0,0,0,.26,0,.29.29,0,0,0,.15-.12,1.3,1.3,0,0,0,.1-.27l.66-2.5a1,1,0,0,0,0-.25.16.16,0,0,0,0-.11.17.17,0,0,0-.1-.06l-.21,0,0-.1.64,0,.65,0,0,.1a1.3,1.3,0,0,0-.27,0,.29.29,0,0,0-.15.12,1.22,1.22,0,0,0-.1.28Zm-3.22-2.91a4.7,4.7,0,0,0-.65-.06,1.1,1.1,0,0,0-.56.09.81.81,0,0,1,.06.13.5.5,0,0,1,0,.16.35.35,0,0,1-.07.2.2.2,0,0,1-.18.09.19.19,0,0,1-.17-.07A.24.24,0,0,1,91,80.5a.41.41,0,0,1,.27-.39A1.53,1.53,0,0,1,92,80l.38,0,.59.07a6.21,6.21,0,0,0,.69,0l.37,0a1.07,1.07,0,0,0,.27-.09.39.39,0,0,1-.12-.28.34.34,0,0,1,.06-.2.26.26,0,0,1,.19-.08.24.24,0,0,1,.17.07.31.31,0,0,1,0,.17.37.37,0,0,1-.06.21.66.66,0,0,1-.17.16,1.57,1.57,0,0,1-.8.16l-.52,0L92.35,83a1,1,0,0,0,0,.25.22.22,0,0,0,0,.14.2.2,0,0,0,.13.06.81.81,0,0,0,.25,0l0,.1H91.22l0-.1a1,1,0,0,0,.33,0,.45.45,0,0,0,.19-.14,1.7,1.7,0,0,0,.12-.29Zm-4,.46-1.08,1.53H88.7Zm.61,2.56a.38.38,0,0,0,.09.24.21.21,0,0,0,.16.08l0,.1H88.29l0-.1a.85.85,0,0,0,.27,0,.24.24,0,0,0,.13-.13.54.54,0,0,0,0-.25l0-.83H87.46l-.38.53a1.15,1.15,0,0,0-.23.51c0,.13.12.21.37.21l0,.1h-1l0-.1a1,1,0,0,0,.5-.44L88.94,80H89ZM85.74,80a7.93,7.93,0,0,0-.32,1.16h-.11a2.24,2.24,0,0,0,0-.34,1,1,0,0,0-.08-.41.75.75,0,0,0-.27-.29.88.88,0,0,0-.4-.1,1.15,1.15,0,0,0-.8.39,3.27,3.27,0,0,0-.88,2.15,1.19,1.19,0,0,0,.19.74.63.63,0,0,0,.53.25,1.17,1.17,0,0,0,.47-.1,1.3,1.3,0,0,0,.43-.29,1.47,1.47,0,0,0,.23-.31,4.16,4.16,0,0,0,.22-.49h.11c-.15.56-.25,1-.29,1.21h-.11a1.16,1.16,0,0,0,0-.17c0-.09,0-.13-.06-.13a.23.23,0,0,0-.1,0l-.31.18a1.51,1.51,0,0,1-.28.1,1.35,1.35,0,0,1-.37,0,1.05,1.05,0,0,1-1.17-1.18,2.53,2.53,0,0,1,.29-1.17,2.72,2.72,0,0,1,.79-1,1.85,1.85,0,0,1,1.12-.38A1.59,1.59,0,0,1,85,80a.9.9,0,0,1,.22.11l.19.18s0,0,.07,0,.13-.1.2-.3Z"/><path class="cls-1" d="M166.28,80a5.65,5.65,0,0,0-.3,1h-.1a1.27,1.27,0,0,0,0-.28.78.78,0,0,0-.08-.35.53.53,0,0,0-.23-.24.83.83,0,0,0-.41-.09.76.76,0,0,0-.51.16.59.59,0,0,0-.19.48,1.09,1.09,0,0,0,.42.76c.28.26.49.47.64.63a.87.87,0,0,1,.21.59.83.83,0,0,1-.19.56,1.12,1.12,0,0,1-.48.33,1.72,1.72,0,0,1-.6.1,1.27,1.27,0,0,1-.43-.06,1.05,1.05,0,0,1-.29-.17.27.27,0,0,0-.18-.07.11.11,0,0,0-.1.05,1.43,1.43,0,0,0-.11.22h-.1a7.05,7.05,0,0,0,.34-1.21h.1c0,.1,0,.17,0,.23a1,1,0,0,0,0,.18c0,.49.3.73.82.73a.87.87,0,0,0,.54-.15.57.57,0,0,0,.2-.48,1.07,1.07,0,0,0-.38-.78,7.56,7.56,0,0,1-.58-.59,1,1,0,0,1,0-1.16,1,1,0,0,1,.41-.34,1.41,1.41,0,0,1,.54-.11,1.3,1.3,0,0,1,.36,0,.92.92,0,0,1,.29.16.39.39,0,0,0,.17.09s.05,0,.08-.06l.09-.2ZM161,82.8c.15-.65.29-1.21.43-1.68a4,4,0,0,1,.42-1,.66.66,0,0,1,.55-.32.32.32,0,0,1,.23.07.25.25,0,0,1,.07.19.35.35,0,0,1,0,.17.33.33,0,0,1-.1.14.28.28,0,0,1-.16.05.19.19,0,0,1-.15-.06.21.21,0,0,1,0-.14.25.25,0,0,1,.05-.16.58.58,0,0,1,.11-.15h0a.5.5,0,0,0-.42.25,4.69,4.69,0,0,0-.46,1.18c-.16.56-.35,1.32-.55,2.29h-.11l-1.15-3.25c-.17.85-.32,1.56-.47,2.14a3.91,3.91,0,0,1-.42,1.14,1.28,1.28,0,0,1-.24.23.49.49,0,0,1-.3.09q-.3,0-.3-.27a.51.51,0,0,1,0-.17.45.45,0,0,1,.1-.13.24.24,0,0,1,.16,0,.17.17,0,0,1,.15,0,.24.24,0,0,1,.05.14.37.37,0,0,1-.05.17.58.58,0,0,1-.11.15h0a.49.49,0,0,0,.42-.26,4.26,4.26,0,0,0,.4-1.1c.13-.52.28-1.21.45-2,0,0,0-.08,0-.12a.18.18,0,0,0,0-.13l-.12-.06-.23,0,0-.1.45,0,.41,0Z"/></g></g></svg>